/* XPM */
static char *_1f2162de8e64b44aab72be2c61be5d2wu4uGUzhQym1HqVF[] = {
/* columns rows colors chars-per-pixel */
"64 64 256 2 ",
"   c #030302",
".  c #0B0401",
"X  c #0A0A05",
"o  c #0B0B0A",
"O  c #070803",
"+  c #120600",
"@  c #140C06",
"#  c #11110D",
"$  c #1B130B",
"%  c #121312",
"&  c #1C1C1A",
"*  c #1A1A15",
"=  c #250B01",
"-  c #380A01",
";  c #271507",
":  c #361902",
">  c #1F201A",
",  c #23231D",
"<  c #3C220D",
"1  c #2C2C29",
"2  c #242522",
"3  c #32332C",
"4  c #3A3B34",
"5  c #3D3D3A",
"6  c #353533",
"7  c #323030",
"8  c #440701",
"9  c #5C0700",
"0  c #5B0800",
"q  c #481A03",
"w  c #531D02",
"e  c #591F02",
"r  c #630800",
"t  c #6A0A00",
"y  c #610701",
"u  c #760C00",
"i  c #611F02",
"p  c #482104",
"a  c #542304",
"s  c #5C2203",
"d  c #582907",
"f  c #502F15",
"g  c #632403",
"h  c #6B2602",
"j  c #6B2A03",
"k  c #642907",
"l  c #732B03",
"z  c #7A2D02",
"x  c #742702",
"c  c #683508",
"v  c #7C3204",
"b  c #76390A",
"n  c #653A17",
"m  c #6C221D",
"M  c #571C2E",
"N  c #712B2D",
"B  c #24552A",
"V  c #7A4307",
"C  c #76491B",
"Z  c #6D4616",
"A  c #44433D",
"S  c #4F4E3D",
"D  c #684A29",
"F  c #705232",
"G  c #746C0A",
"H  c #272E52",
"J  c #782A56",
"K  c #583947",
"L  c #305D66",
"P  c #494945",
"I  c #585955",
"U  c #52514B",
"Y  c #725C43",
"T  c #4F6951",
"R  c #716556",
"E  c #6A6A66",
"W  c #76736D",
"Q  c #797A76",
"!  c #706E6A",
"~  c #6A4F63",
"^  c #872E01",
"/  c #843303",
"(  c #8B3402",
")  c #893906",
"_  c #933502",
"`  c #9B3501",
"'  c #953A04",
"]  c #9C3A02",
"[  c #883912",
"{  c #A33601",
"}  c #A53A01",
"|  c #AC3C01",
" . c #A83703",
".. c #B23E01",
"X. c #BA3F01",
"o. c #A33F10",
"O. c #8B0B3A",
"+. c #8A4508",
"@. c #974708",
"#. c #975909",
"$. c #854B19",
"%. c #915212",
"&. c #AB4203",
"*. c #A84907",
"=. c #B64202",
"-. c #BB4502",
";. c #BE4903",
":. c #B74A0B",
">. c #A5590B",
",. c #B95808",
"<. c #A64314",
"1. c #A75311",
"2. c #9B610D",
"3. c #A9640B",
"4. c #B96C08",
"5. c #BC7208",
"6. c #855629",
"7. c #885E35",
"8. c #945025",
"9. c #A94E22",
"0. c #8B643C",
"q. c #C14602",
"w. c #C44A03",
"e. c #CB4D02",
"r. c #D14E02",
"t. c #CE5103",
"y. c #C4540C",
"u. c #C65707",
"i. c #D35302",
"p. c #DA5502",
"a. c #DC5A03",
"s. c #D65C0A",
"d. c #E35B03",
"f. c #EA5D02",
"g. c #E05601",
"h. c #DB6305",
"j. c #DB680A",
"k. c #C87A06",
"l. c #DA7709",
"z. c #D36F0D",
"x. c #E36405",
"c. c #EC6303",
"v. c #EB650D",
"b. c #EE6B0C",
"n. c #E76807",
"m. c #F36C04",
"M. c #F86806",
"N. c #EE7404",
"B. c #EE7B04",
"V. c #E7770B",
"C. c #F17303",
"Z. c #F17D03",
"A. c #FD730B",
"S. c #F37B0C",
"D. c #FB7907",
"F. c #EA6A11",
"G. c #F77511",
"H. c #F06B10",
"J. c #DE7229",
"K. c #8F2F5F",
"L. c #846847",
"P. c #886750",
"I. c #A54679",
"U. c #867D73",
"Y. c #897564",
"T. c #825257",
"R. c #DC2172",
"E. c #23934F",
"W. c #DB840A",
"Q. c #DC8813",
"!. c #DE9317",
"~. c #EE8305",
"^. c #E6880A",
"/. c #F28403",
"(. c #F38B03",
"). c #FB8C03",
"_. c #F3830C",
"`. c #F48B0B",
"'. c #FB8D0D",
"]. c #FD8408",
"[. c #EF920C",
"{. c #EF980E",
"}. c #F59001",
"|. c #FD9303",
" X c #FD9B0E",
".X c #F9960B",
"XX c #E48913",
"oX c #FB8712",
"OX c #E29217",
"+X c #E19519",
"@X c #E39B1A",
"#X c #EF9B12",
"$X c #FF9512",
"%X c #FF9B12",
"&X c #F39512",
"*X c #F6A815",
"=X c #F5B41E",
"-X c #F2B723",
";X c #F6CA2A",
":X c #F8CD2B",
">X c #F7C528",
",X c #F9D52D",
"<X c #F8DC32",
"1X c #F8F113",
"2X c #8B857D",
"3X c #C09C54",
"4X c #B4B025",
"5X c #73638C",
"6X c #3C679F",
"7X c #864F8E",
"8X c #A85A91",
"9X c #E776A6",
"0X c #CF5A96",
"qX c #AA37A1",
"wX c #60B3BB",
"eX c #858583",
"rX c #8B8A83",
"tX c #8B8A88",
"yX c #95938C",
"uX c #949592",
"iX c #9B9994",
"pX c #999B99",
"aX c #8F8F8C",
"sX c #A19E9D",
"dX c #A0A09E",
"fX c #B58AB1",
"gX c #A7A8A6",
"hX c #B3B3AE",
"jX c #B7B7B6",
"kX c #C598BA",
"lX c #F88CB1",
"zX c #CBABB6",
"xX c #FFB0BB",
"cX c #D9A59E",
"vX c #BBC0BF",
"bX c #C2C2BE",
"nX c #DDD0AC",
"mX c #F2DBB6",
"MX c #EEE2B3",
"NX c #BDBFC0",
"BX c #BFC4C3",
"VX c #C5C5C3",
"CX c #CACCCB",
"ZX c #D9D9D6",
"AX c #D7D8D7",
"SX c #D1D3D1",
"DX c #F0DACE",
"FX c #DDE2E4",
"GX c #E4E4E3",
"HX c #EBECEB",
"JX c #F2F1EF",
"KX c #E9EEF1",
"LX c #EEF3F6",
"PX c #FEFEFE",
"IX c #F6F7F6",
"UX c #DCDFDF",
/* pixels */
"-X>X-X#X{.{.[.[.[.[.[.[.[. X2.; ; ; $ $ $ # $ @ Z  X[.[.[.[.[.[.[.[.[.[.[.[.[. XZ @ $ # $ ; ; < Z 2.Q..X[.[.[.[.[.[.[.[.[.[.[.&X",
"<X<X<X;X.X}.}.(.}.}.}.}.}.(.: + + . . . . . . = k.|.(.}.}.}.}.}.}.}.}.}.}.}.(.|.k.= . . . . . . . + p ^.|.(.}.}.}.}.}.}.}.}.(.&X",
",X,X,X<X>X}.}.(.(.(.(.(.|.W.; @ + . . . . . ; 5.|.(.(.(.(.(.(.(.(.(.(.(.(.(.}.(.|.k.; . + + . . . @ + #.|.(.(.(.(.(.(.(.(.(.(.&X",
",X,X,X,X,X#X(.(.(.(.(.(.(.}.d . . . . + : V ^.|.(.(.(.(.(.(.(.(.(.(.(.(.(.(.(.(.(.|.W.b = . . . . @ + #.|.(.(.(.(.(.(.(.(.(.(.&X",
":X:X:X:X,X*X(.(.(.(.(.(.(.).l.b c V #.4.~.|.).(.(.(.(.(.(.(.(.(.(.(.(.(././.(.(.(.(.).|.l.+.a ; + . : W.).(.(.(.(.(.(.(.(.(./.`.",
":X:X:X;X,X=X(.(././././././.).|.|.|.|.).(./././././././././././././././././././././././.).|.).l.4.#.l.)./././././././././././.`.",
";X;X;X;X:X*X/././././././././.~.~.~.~.~./././././././././././././././././././././././././.~./.(.).|.)././././././././././././.`.",
">X>X>X>X;X[././././././././.'. X X X X X.X`.~./././././././././././././././././././.~.(..X$X X$X.X`.~././././././././././././.`.",
">X>X>X:X=X/./.Z.Z./././.$X%X^.5.3.#.2.4.W.&X%X'.~././.Z.Z.Z.Z.Z.Z.Z.Z.Z.Z.Z././.~.'.%X&XW.k.4.4.k.^.%X$X/.~././.Z.Z.Z./.Z./.Z._.",
">X>X;X=X`./.Z.Z.Z.~.`.%Xk.C Y 2XsXgXdXrXR F #.[.$X~.Z.Z.Z.Z.Z.Z.Z.Z.Z.Z.Z.Z./.`.%XW.#.D Y U.rX2XW F C 5.%X'.~.Z.Z.Z.Z.Z.)./.Z._.",
">X=X*X/.Z.Z.Z.Z.B.'.[.$.W CXPXPXPXPXPXPXPXGXpXD 3.%X_.Z.Z.Z.Z.Z.Z.Z.Z.Z.Z.B.'.&X%.Y gXGXPXPXPXPXPXIXVXW Z W.$XB.Z.B.Z.).+.z.Z._.",
"&X/.4././.B.Z.B.'.W.D jXPXPXPXJXSXVXVXZXIXPXPXHXW %.$X_.Z.Z.Z.Z.Z.Z.Z.Z.B.'.XXZ pXPXPXPXPXHXGXHXPXPXPXPXVXF 4.$XB.Z.].b +.Z.Z.S.",
"Z.].+.c V.].N.'.l.D ZXPXPXZX2XA 2 * * , 5 Q ZXPXPXuX$.$XB.Z.Z.C.C.Z.Z.B.'.W.D CXPXPXSXrXU 3 1 4 U rXAXPXPXLXR 3.%X~.c @.].Z.C.S.",
"Z.C.].,.d ,.'.^.D UXPXPXiX1 & & & & % o o X , yXPXPXaX#.$XB.C.C.C.C.N._.^.D AXPXHXQ > X o % & * > 2 1 eXIXPXPXE 3.V >.].N.C.C.S.",
"C.C.N.D.l.c #.C CXPXPXW 3 aXjXgXI % % O O o # X E PXPX! 4.oXN.C.C.C.N.'.C NXPXAX5 X # o o % * E bXSXgX5 I GXPXPXU >.'.N.C.C.C.S.",
"m.m.m.C.D.'.c pXPXPXW 4 SXPXPXPXPXW o o     O % X ! PXKXF _.S.C.C.N.oX3.rXPXUX3 o o O   o o eXPXPXPXPXGXP P GXPXZXC _.C.C.N.C.D.",
"m.m.m.C.S.V.Y PXPXyX, jXPXPXPXPXPXPX5 O O     O % o iXPXgX%.oXC.C.S.B.F IXPXP o o     O O P PXPXPXPXPXPXVX2 I IXPXuX>.oXC.D.s.1.",
"C.D.D.C.].#.jXPXCX, U PXPXPXPXPXPXPXdXO o o o X X o , ZXPXY V.S.C.].>.gXPXrXX # O O O o O gXPXPXPXPXPXPXPXI % rXPXLXF _.j.v d 1.",
"v ) s.D.S.Y PXPXI # Q PXPXPXPXPXPXPXAX& * o % o o o X E PXgX>.D.N.S.F PXGX, o O o O o % & AXPXPXPXPXPXPXPXQ % 2 AXPXiXc c *.m.A.",
"s.@.k b V iXPXVX& # eXPXPXPXPXPXPXPXGX1 * uXAX6 O O o & UXIXF S.G.,.aXPXQ X o o o 6 1 % 1 GXPXPXPXPXPXPXPXeXo # Q PXAXZ ].D.c.b.",
"m.M.m.z.n CXPXQ o o Q PXPXPXPXPXPXPXZX& I PXPXgX  X o O rXPXY.z.oX%.SXPX1 o X O A PXGX6 2 AXPXPXPXPXPXPXPX! O # 3 JXPXP.V.b.c.b.",
"c.c.c.D.7.LXPX5 o o P PXPXPXPXPXPXPXjXo eXPXPXVXo O   O P PXgX>.oXF PXjXo o O   uXPXPXyXo hXPXPXPXPXPXPXPX5 O o # jXPXrXu.A.M.A.",
"c.c.m.h.P.PXAX& o o % VXPXPXPXPXPXPXI o Q PXPXjXO O   X , JXSX8.V.Y.PXQ   O O   gXPXPXhX# U PXPXPXPXPXPXhXo o o   eXPXhX@.j.;.,.",
"M.M.A.h.U.PXjXo o O o 4 HXPXPXPXPXtX% % 6 IXPXI   O   X # SXLX7.z.yXPXU     O   ! PXPXpXo * Q PXPXPXPXZX1 o O O   I PXSXf c j b ",
"v l b d yXPXsX  O   o o 6 gXAXCX! % # o o P I o o     O X jXPX0.,.gXPX5       o & jXHX4 o % o I jXVXuX1 o o       A PXFX6.A.M.A.",
"&.&.u.@.iXPXyX. O     o o o & % o # o O o O   o       O   gXPXL.>.hXPX3       O o * 2 o o O o o o o O o o         6 PXKX6.m.f.v.",
"M.M.A.u.sXPXrX  O       O o o o o o o o X X O         O   gXPXL.>.hXPX3 O       O o o o o o o o o o o O         O 3 PXLXF M.f.v.",
"f.f.M.,.iXPXuX  O               o o % o o O           O X hXPX0.,.gXPX4             O o o O O o O         . . . X 4 PXKX6.m.f.v.",
"f.d.M.u.2XPXgXX X . . . . . .   O P ZXjX2 O           X # CXLX7.u.iXPXU               o 2 uXeX% X . . .         . P PXKX$.M.f.v.",
"d.d.c.a.Y.PXSX$ X             X . bXPXPXeX  O         X > HXUX8.j.U.PX!   O         O O gXPXPXE . O . = : q a p p f rXpX%.A.d.v.",
"d.d.f.x.7.PXCX& $ : p a a q : ; . eXPXPXE             O 5 PXjX1.H.R PXpX  O         O O VXPXLXI : b &.u.h.x.x.x.x.h.*.c f ;.M.v.",
"d.d.d.A.$.I Z @.u.a.x.n.n.x.a.u.1.n R E $ X         O   W PXrXy.A.C LXSX% X           O P gXS @.j.b.V.XXOXOXOXOXXXXXoXA.y.a v v.",
"g.d.c.' d *.H.S.V.XXOX+X+XOXXXXXV.H.y.a # . .       o # bXPXY x.G.@.vXPXA X O         @ o d j.G.XX+X@X@X@X@X@X@X@X@X@XOXS.c.z k ",
"a.f.z k x.S.OX@X@X@X@X@X@X@X@X@X@XXXb.v.v . .     O X P PXCX$.H.v.u.U.PXuXX o       . . d v.b.XX@X@X@X@XXXV.x.x.x.h.x.V.V.x.f.<.",
"d.z j c.V.Q.XXl.l.j.j.j.V.XX@X@X@X@X+Xj.x./ . .   # # jXPXW ,.v.a.v.D KXPX6 o O   .   q a.j.OX@X@X@XXXj.a.a.a.a.a.a.a.a.a.a.p.v.",
"t./ d.a.h.a.a.a.a.a.a.a.a.a.l.OX@X@X@X@Xz.d.j   $ X E PXSXC b.a.a.H.*.aXPXgX# # . . $ u.h.!.@X@X@XQ.h.d.c.c.f.a.a.a.a.a.a.a.p.s.",
"p.d.p.a.a.a.a.a.a.a.a.f.c.c.d.h.Q.@X+X@X!.h.p.q X A IXPXR y.v.a.p.a.v.D FXPXW X $ . ) d.Q.@X+X@XQ.x.a.&./ ( &.a.d.p.p.p.p.p.p.s.",
"p.p.p.p.p.p.p.p.p.d.t.' / ) ;.d.a.W.@X@X@Xl.d.*.3 GXPXiX+.H.a.p.p.p.v.,.R PXPXR X < i.h.!.!.@XQ.x.*.p s v v s a ;.d.p.p.p.p.p.s.",
"p.p.p.p.p.p.p.p.d./ q j / l w k i.a.z.Q.Q.j.i.x.C LXBXn F.a.p.p.p.p.p.H.+.eXPXPXI ) d.i.l.!.l.x.@.q =.d.d.d.d.&.q ;.a.p.p.p.i.s.",
"p.i.i.i.p.p.i.d.l s i.d.d.d.p.( q ;.a.s.s.a.p.x.*.I D h.a.p.p.i.p.i.p.s.F.b aXPXR w.a.p.a.s.d.&.q i.d.i.i.i.i.f.&.a a.i.p.p.i.s.",
"p.p.p.p.p.i.a.} a d.p.i.i.i.i.f.&.q t.p.i.) i.p.h.a ,.x.i.p.p.p.p.p.p.p.s.F.b E C x.a.;.@.a.t.w w.a.i.p.p.p.p.i.d.j &.d.i.p.i.s.",
"i.i.i.i.i.i.a.s =.a.i.i.i.i.i.t.d.] a p.a.l v a.a.) ' a.i.i.i.i.i.i.i.i.i.s.b.k @.d.a.k _ f.j ' d.t.i.i.i.i.i.i.a.} l d.i.i.i.s.",
"t.t.i.i.i.p.-.g p.t.i.i.i.i.t.i.t.d.x / d.i.w ;.a.=.k p.t.i.i.i.i.i.i.i.i.t.a.c ;.a.&.s d.&.s p.t.i.i.i.i.t.i.t.i.w.g t.i.i.i.s.",
"t.t.t.t.t.p.] z p.e.t.t.t.t.t.t.e.t.e.w -.a.( l p.t.g -.i.e.t.t.t.t.t.e.e.i.;.g t.p.l ' d.h } p.e.t.t.t.t.t.t.t.e.i.g -.i.t.e.s.",
"e.e.e.e.e.p./ ( p.e.e.e.e.e.e.e.e.e.p.( l a.w.s w.p.z ' p.e.e.e.e.e.e.e.e.i.} l p.e.s w.;.s e.e.e.e.e.e.e.e.e.e.e.i.l } i.e.e.y.",
"e.e.e.e.e.p.l ] i.e.e.e.e.e.e.e.e.e.e.w.a w.p.h } a.' z p.e.e.e.w.w.e.e.w.p.( / a.&.g g.( z p.e.e.e.e.e.e.e.e.e.e.i.z ' i.e.w.y.",
"e.e.w.w.w.i.l } r.w.e.e.e.e.e.e.e.e.w.i.l ( g.( v p.&.g r.w.w.w.r.r.e.w.w.i.l ' a.( z a.g } r.w.e.e.e.e.e.e.e.e.w.i./ ( i.w.w.y.",
"w.w.w.w.w.i.l } e.w.w.w.w.w.w.w.w.w.w.e.] g p.} j i.-.s w.w.w.w.( z | e.w.r.j } p.z _ e.s ;.w.w.w.w.w.w.w.w.w.w.w.i./ / i.w.w.y.",
"w.w.w.w.w.r.l ] e.w.w.w.w.w.w.w.w.w.w.w.q.s w.-.s w.w.s -.w.q.w - 8 = ( w.w.g &.i.j } =.g e.w.w.w.w.w.w.w.w.w.w.w.r.( / r.w.w.y.",
"w.w.w.w.q.e.l ' e.w.w.w.w.w.w.w.w.w.w.q.e.g } w.s =.w.g &.e.h - u u t - &.w.g &.r.g =.] l e.q.w.w.w.w.w.w.w.w.w.q.e._ z e.w.q.y.",
";.;.;.;.-.e.l _ w.-.;.;.;.;.;.;.;.;.;.-.e.z / r.g } e.g | -.- t t y u 8 h e.s &.e.s =./ v e.-.;.;.;.;.;.;.;.;.;.-.w.' j e.-.-.y.",
"-.-.-.-.-.w.l _ w.-.-.-.-.-.-.-.-.-.-.-.w._ j r.g ] w.s &.] - t y y t 9 q w.g } w.s =.z ( w.-.-.-.-.-.-.-.-.-.-.-.w.] g w.-.-.:.",
"-.-.-.-.-.w.l ( w.-.-.-.-.-.-.-.-.-.-.-.q.} s e.l ' w.s &.( 8 t y y y y q -.g ' w.w =.l _ w.-.-.-.-.-.-.-.-.-.-.-.-.} s w.-.=.:.",
"=.=.=.=.=.q.h ( -.=.=.=.=.=.=.=.=.=.=.=.-.| s -.=.=.=.s =.^ 8 t 9 9 y 9 q q.h ( q.' =.g ' -.=.=.=.=.=.=.=.=.q.q.-.-.=.s =.=.=.:.",
"=.=.=.=...q.h _ -.=.=.=.=.=.=.=.=.=.=.=.=...e ..=.=...w =._ - t 9 9 y 0 q q.z z q.=.q.g ` -.=.=.=.=.=.=.=.q.( h m m z q ..=...:.",
"..........-.g _ =...........................e | =.=.| w ..| - 9 y 0 t - h q.^ h -.| -.g ' =.............=.g J 0X9X9X8XM ( -...:.",
"..........=.s ` =...........................e } ....` e ..=.x = t t 0 - } =.` e =.| =.g _ =...........=.d 8XxXmXMXMXmXlXJ / -.:.",
"| | | | | ..e ] ..| | | | | | | | | | | | ..w } ..=.( g =.| ..e = - - ( ..| | w | | =.g ^ =.| | | | =.l K.xXnXkXkXfXzXMXlXM } :.",
"| | | | | | w } | | | | | | | | | | | | | | w } | =.x h =.} | ..( ^ } ..| | ..w _ | =.h z ..| | | | } M lXMXfX5XtX5X8XzXmX8Xg :.",
"| |  . .| ` w | | | | | | | | | | | | | | } w } | ..s ^ ..| | | | ..| | | } ..h l ....z h ..| | | ..z K.DXzX5XgXuXpXuX7XmXlXN &.",
"` <.9.<.| ^ s ..} } } } } } } } } } } } | ` w | } | q ` | } } } } } } } } } | ^ w | | ^ e | } | } ..x I.nX5X7 2XtX! I H sXcXN ' ",
"Y.aX7 F X.i x ..} } } } } } } } } } } } | ^ w | | ^ w |  .} } } } } } } } } } | q ` | ` q } } } } | n E.S K.~ L ! 7XL.4X8.6 H s ",
"P.U.5 D | q `  . . . . .{ {  . . . . .{ | x g | | h z | {  . . . . . . . . .{ | x e | | w ^ |  .}  .n E.T R.8XwXaXqX3X1XJ.T.6Xd ",
"( [ 8.9.[ d <.o.<.o.<.<.<.o.{ { { { { { | i x | { { { { { { { { { { { { { { { { ` z { | i h | { {  .k B B O.K L P J D G [ N L N "
};
