/* XPM */
static char *_b0375186c284cc9c07702928432feectN2YDWd8w7eLrVdS[] = {
/* columns rows colors chars-per-pixel */
"64 64 249 2 ",
"   c #050505",
".  c #170A0B",
"X  c #1C1414",
"o  c #1B1817",
"O  c #0E1113",
"+  c #240D0C",
"@  c #2C110D",
"#  c #231B1B",
"$  c #261816",
"%  c #331A16",
"&  c #381A16",
"*  c #30120F",
"=  c #2A211E",
"-  c #3C221C",
";  c #34241E",
":  c #291E21",
">  c #351F21",
",  c #172D31",
"<  c #3C2B26",
"1  c #3D2B2A",
"2  c #362624",
"3  c #322F2F",
"4  c #0C1B20",
"5  c #4B1413",
"6  c #4C1A14",
"7  c #451714",
"8  c #541B14",
"9  c #48150E",
"0  c #47271B",
"q  c #5A2A18",
"w  c #503217",
"e  c #65251A",
"r  c #441B25",
"t  c #4A2C24",
"y  c #432E2B",
"u  c #4B2D2B",
"i  c #472724",
"p  c #542A28",
"a  c #45322D",
"s  c #49332E",
"d  c #4A3428",
"f  c #5D3B2A",
"g  c #573428",
"h  c #463331",
"j  c #4A3531",
"k  c #4D3D39",
"l  c #4A3B38",
"z  c #573A36",
"x  c #452F33",
"c  c #632C29",
"v  c #623C2B",
"b  c #653528",
"n  c #77382A",
"m  c #663D36",
"M  c #793433",
"N  c #54433C",
"B  c #5B4338",
"V  c #4C4137",
"C  c #654434",
"Z  c #694434",
"A  c #6B443B",
"S  c #67473A",
"D  c #784638",
"F  c #67462D",
"G  c #173644",
"H  c #2F3F4C",
"J  c #513C42",
"K  c #633A40",
"L  c #1E424A",
"P  c #1E4E55",
"I  c #254549",
"U  c #374347",
"Y  c #244B55",
"T  c #26525A",
"R  c #344F55",
"E  c #295A65",
"W  c #325B66",
"Q  c #2C636B",
"!  c #2C6167",
"~  c #2D6776",
"^  c #316D7B",
"/  c #356876",
"(  c #32707D",
")  c #316770",
"_  c #4B4548",
"`  c #594646",
"'  c #575659",
"]  c #4F4F54",
"[  c #6C4C43",
"{  c #644D4B",
"}  c #684946",
"|  c #744A45",
" . c #6E524A",
".. c #74534A",
"X. c #785548",
"o. c #654E53",
"O. c #655354",
"+. c #6C5B5C",
"@. c #685758",
"#. c #735D5E",
"$. c #7B5C5A",
"%. c #785755",
"&. c #7B6257",
"*. c #736556",
"=. c #5D5C62",
"-. c #6C5D62",
";. c #645A63",
":. c #765D62",
">. c #4E6368",
",. c #6B646C",
"<. c #746263",
"1. c #7A6769",
"2. c #6C6671",
"3. c #766C74",
"4. c #7B7279",
"5. c #8A352F",
"6. c #96381F",
"7. c #8C4C3B",
"8. c #854737",
"9. c #944D3A",
"0. c #974C39",
"q. c #8D513D",
"w. c #87533E",
"e. c #94523D",
"r. c #9C533D",
"t. c #9A573D",
"y. c #884429",
"u. c #AC4C32",
"i. c #9D3E43",
"p. c #864A45",
"a. c #845443",
"s. c #8C5543",
"d. c #885949",
"f. c #945442",
"g. c #9C5542",
"h. c #945A45",
"j. c #9C5A44",
"k. c #975C4A",
"l. c #845B58",
"z. c #955B57",
"x. c #984A43",
"c. c #B9484D",
"v. c #A25A45",
"b. c #A45948",
"n. c #AD4B4A",
"m. c #9A614C",
"M. c #836354",
"N. c #87685A",
"B. c #926553",
"V. c #986B5A",
"C. c #8C745C",
"Z. c #97735D",
"A. c #85614C",
"S. c #A7624C",
"D. c #A46957",
"F. c #A7755C",
"G. c #B66C54",
"H. c #845D63",
"J. c #836363",
"K. c #8B6464",
"L. c #8C6C65",
"P. c #846C6C",
"I. c #8C6D6B",
"U. c #876769",
"Y. c #946C66",
"T. c #8D716C",
"R. c #897167",
"E. c #93736C",
"W. c #977865",
"Q. c #8A6D72",
"!. c #926E73",
"~. c #8A7577",
"^. c #937473",
"/. c #93767A",
"(. c #937B7D",
"). c #987977",
"_. c #BC6E69",
"`. c #A57964",
"'. c #B1766E",
"]. c #C26E4A",
"[. c #9B866A",
"{. c #9A8678",
"}. c #9D927C",
"|. c #A5866A",
" X c #B9866A",
".X c #A4867A",
"XX c #AE8D77",
"oX c #93824F",
"OX c #C58C75",
"+X c #347583",
"@X c #357A85",
"#X c #367C8C",
"$X c #3A7D8C",
"%X c #397886",
"&X c #367E91",
"*X c #397F92",
"=X c #3C7E98",
"-X c #2F6F82",
";X c #447D91",
":X c #7A7482",
">X c #877982",
",X c #947C81",
"<X c #997C84",
"1X c #36818E",
"2X c #39808E",
"3X c #368291",
"4X c #398192",
"5X c #45869C",
"6X c #5E8FA1",
"7X c #998688",
"8X c #9A8C91",
"9X c #969293",
"0X c #9A9395",
"qX c #9E999A",
"wX c #969799",
"eX c #8D8789",
"rX c #A38A8C",
"tX c #A68986",
"yX c #AD928A",
"uX c #B2948C",
"iX c #A58D93",
"pX c #A19B9D",
"aX c #AB9698",
"sX c #B59996",
"dX c #B3888F",
"fX c #BDA29D",
"gX c #B69CA3",
"hX c #A79FA1",
"jX c #AAA5A6",
"kX c #B6A8A9",
"lX c #BAB6B7",
"zX c #BAB0AD",
"xX c #9DA1A2",
"cX c #C6A899",
"vX c #C4A6A3",
"bX c #C4A9A4",
"nX c #C8A9A9",
"mX c #C4BCBD",
"MX c #C9B0B4",
"NX c #D4B5B2",
"BX c #D7ADA1",
"VX c #E6C4B7",
"CX c #BDBCC1",
"ZX c #CCBEC0",
"AX c #CBC7C8",
"SX c #D6D3D3",
"DX c #D4CACB",
"FX c #E7D9D6",
"GX c #EAD3CE",
/* pixels */
"u u s a - t 0 0 u D X.B % & - w.w.a.q.q.7.7.7.7.8.e.0.r.t.r.g.r.r.r.e.b.r.g.r.r.r.0.9.7.9.r.b v.e.n . + + @ * @ @ @ @ @ + + + + ",
"i u s s ; i t t u N.X.f % - & a.a.s.s.q.q.q.7.7.8.e.0.r.v.9.g.v.v.g.9.b.r.g.v.9.g.0.0.0.0.9.b j.g.M . N.N.l.%...X...%.%...| | g ",
"0 i u s 1 > < u u R.N.C % & - a.a.a.s.s.s.7.q.7.7.e.9.r.j.r.v.r.r.g.9.v.v.v.r.r.0.9.9.0.r.0.c b.9.n + /.^.E.I.L.I.I.I.I.I.L.L.[ ",
"0 0 0 s y a - < y R.d.Z % % - a.s.s.s.s.s.q.e.8.8.e.9.g.7.9.v.r.v.r.9.r.v.r.0.r.r.0.x.9.b g % f m M + ^.{.(./.^.^.^.T.I.I.L.R.X.",
"q 0 0 a a a u u u R.B.v % % - a.a.s.k.8.k.q.e.n n f.9.j.8.7.b.r.r.r.e.v.v.9.g.g.r.r.b I Q @X%X@XQ I o <.(.(./.^.!.I.I.I.T.T.E...",
"e q 0 y a s s s s R.W.Z % % - d.d.s.k.n h.f.q.7.8.f.9.j.g.j.v.r.v.b.9.v.S.v.b.g.r.g ~ 1X1XY Y L ^ 2X&XE U P.)./.^.T.E.^.^.^.E...",
"q q 0 i s s u j u R.W.A % % 0 d.d.d.s.s.s.s.q.7.7.e.9.j.j.g.j.g.r.g.f.b.g.r.g.j.v ( *X*XP ^ 2X4XT 3X3X#X#XY @.).^.E.^.^.^.T.I...",
"q q w u j s a j j N.C.m % % 0 d.s.d.s.h.h.f.q.q.7.e.e.j.t.e.j.g.r.g.f.g.v.g.g.8.W 1X*X1X%X^ L P ~ ~ +X-X#X2XQ ' ^.^.E.E.T.L.L.[ ",
"q w w i j s j s s M.W.v & % - d.d.k.d.k.s.e.9.q.8.f.e.t.f.e.j.g.g.b.f.v.v.g.9._ &X1X=X2XE T 1X^ ~ E Y T L +X4X~ ' ^.^.E.L.L.N.A ",
"q w w y j s j s s d.{.[ % % i d.z.k.k.k.h.q.e.q.8.9.e.t.e.f.j.t.g.j.e.g.r.g.D ^ #X1X3X3X@X1XE Y E #X&X#X&XY &X1XW <.^.^.T.L.N.A ",
"q w w u s j s j s a.{.Z % % t B.B.B.m.k.k.q.q.q.8.e.f.f.f.e.g.g.r.g.f.g.j.v._ &X2X#X1X&X1X$XY , ^ L I Y E +X#X4X&XR ^.^.^.T.N.A ",
"q 0 w a a j s s s a.{.F & % t B.B.V.D.m.k.h.f.7.8.e.f.e.f.e.g.g.b.g.f.b.h.e.E 2X#X4X=X&X4X*X4 L 1X4X2XE E +X4X1X4X+X@.).E.I.N.A ",
"6 r w u s s j j s a.7X| i % t z.B.V.`.`.m.h.f.7.8.7.q.j.f.g.t.g.g.j.7.D.7.m @X$X1X#X#X1XG O   E 4X$X#X  #XE *X$X&X3XR (.^.L.N.A ",
"r r t y s j s s s a.oXZ z j z B.V.V.|.XXF.j.f.q.8.f.7.k.f.g.t.g.r.j.7.D.8.{ &X~ E 1X4X4X    4 1X1X4X4X  Q 3X2X4X2X&X@X+.T.L.M.Z ",
"r r i u s j s j s a.[.v z z } B.V.W.V.XX|.D.j.q.8.f.e k.f.t.j.g.f.g.7.D.7.R +XP.yX] ( 1XE , Q 4X4X3X1X, , #X#X1X1X2X4X' T.L.N.A ",
"r r 0 a j j j s s a.7XA z B  .B.V.W.Z.XXF.F.S.f.8.f.D k.f.f.j.r.j.f.7.D.8.W T vXvXvXP.O ` yX).+X1X&X~ T   O G &X&X1X1XE ^.T.L.| ",
"r r r a h j j j s d.[.[ z z  .B.V.W.}.}.|.`.F.S.7.s.8.h.7.j.f.g.g.k.7.F.b @X>.vXbXvX7X  @.nXbXW 4X] ^.] ,     #X3X1X&X@X1.T.L.| ",
"s t i a a s s j s d.oXA z `  .B.Z.Z.}.}.|.`.D.`.v.h.D f.q.f.f.f.k.g.7.A I &XT kXvXnXyX  @.vXbXW &X~.vXfX] Q T 1X1X&X1X*X` L.N.A ",
"% i u s a j j j s d.[...z `  .B.V.W.{.|.|.`.D.`.b.S.8.f.f.f.k.7.j.b.g Q $X#X#X<.bXvXvX1.uXnXsX~ 2X7XvXbXsX3 I Y I ~ *X&XU 0 0 & ",
"2 2 < a a j s s s d.{.S z { %.B.Z.W.{.[.|.F.F.`.b.G.k.j.q.f.m.D S.D E @X$X$X$X~ _ 7XvXvXnXaX] 3X3X4.vXnXfX  _ kXbXT.#X1XR z z i ",
"< < a j a s s s s d.[.F } { %.B.V.Z.{.|.[.F.F.`.S.G.m.G.t.f.k.f.m.U #X$X#X#X1X$X#XT I U U T #X1X4X>.vXnXfX  l vXnXvX~ *XE ^.L.[ ",
"y y a s a s s j a A.{.C ` o...B.V.Z.[.[.W.Z.F.Y.S.b.S.G.G.v.j.f.D ~ #X#X@X#X#X*X^ U ' & p I ~ 3X1X+X=.bXnX*.7XbXvXbXQ $XE E.N.S ",
"y y a h j s a a a d.)...} O. .A.V.V.[.[.W.F.F.d.S.9.S.G.G.G.b.f.` +X#X@X#X#X&X#X% wXqXN e e _ U W 4X+X] sXnXbXnXbX1.$X*XQ T.N.[ ",
"a a a h s a j s s d.C.[ } o. .d.B.B.Y.W.V.V.D.b.h.S.S.S.b.S.b.e./ %X%X#X$X#X1X~ 5.eXwX=.9XwXwXwX,., T #XT ] -.@.] ~ 1X3XQ T.K.| ",
"a a a j s s j j s A.T. .{ @.o.{ @.J.P.~.I.P.P.U.U.P.~.~./.^.).(.%X+X#X@X#X#X#XW c.m ] 3 =.' ] l 1.1.P.` W 3X1X$X4X4X&X4XQ T.L.| ",
"a a h j s j j j s M.{...O.@.o.#.:.#.1.~.~.P.4.3.~.~.~.(.,X(.,X~.5X+X#X#X#X$X#X^ n.Y.bXtXsX~.nX1.nX,XrXP.(.$X1X4X&X4X4X1XW ^.N.| ",
"a a j j h s s j s M.C.[ @.@.O.+.` } #.1.1.#.#.#.%.%.%.%.$.$.l.` 5X%X@X@X#X#X#X&XM z.vXrXbXtXvXP.bX~.yX1.bX~ E 1X4X*X3X4XT I.K.A ",
"j a j j h s s j s M.N.S @.@.O.@.g z ..$.&.%.%...%.$.$.J.J.M.J.` 5X%X@X#X$X$X1X#Xo.z.vXtXnXyXkX~.bXP.7X@.O.^ E 2X3X2X4X1XW L.l.A ",
"j a j j j s j j s M.E.[ @.@.O.+.+.<.,X8X8XeX7X7X8XiXaXaXaXkXkX4.5XW %X#X$X4X&X2X' p.vX{.vXsXsX(.~.1 c 5.z *XE 3X3X3X4X3X>.I.K.| ",
"a a h j j s j s s &.E.| +.-.O.+.<.1.7X9X0X0XqXpXjXjXkXlXmXmXAXeX, ) #X%X#X$X$X1X] p.vX~.aX<.z c i.c.u.x ^ Q #X3X1X4X4X2X' I.U.A ",
"a a h h j j j s s &.Y.A #.+.O.+.<.3.7X9X0X0XpXjXjXjXzXlXAXAXDXxX5X%X#X#X$X$X*X1X=.M +.p M n.c.c.c.i.I 2X4XY 4X3X4X3X, -X` N.l.m ",
"a j a a j a j s u M.C.Z -.+.O.-.<.1.7X0X9X0XpXhXjXjXzXlXZXAXDXCX6X%X%X%X#X$X#X$X;.n.c.c.c.M c c 5.R 3X3X*X2X#X&X$X4X+X, o.J.%.A ",
"a s a h j j j s s M.E.} #.-.O.+.<.1.eX9X0X0XqXhXjXjXzXlXlXZXDXSX;X%X$X$X$X#X#X$X=.c.c.c.c z._._., 3X1X1X4X&X3X3X4X1X2XQ %.:.l.A ",
"a j a j a a j h s N.E...#.-.O.+.-.1.eX9X0X0XqXpXjXjXzXlXmXmXAXSX6X%X^ $X$X$X$X2X] c.c.M _._._.` 1X4X3X*X4X1X4X#X1X3X3XE  .#.J.A ",
"a a j s h h a j h M.T.C #.-.O.+.-.1.eX9X0X0XqXpXjXjXkXlXlXmXAXSXwX;X, $X$X$X$X#XR c.n.p._._.z.^ *X3X4X3X1X3X3X4X1X-X=X3 z K A u ",
"a a j h h j a a u $.R.f *.-.O.+.<.1.eX9X0X0XqXpXjXjXzXlXlXmXAXSXAXI +X$X$X*X2X$XQ c.M _._._.] 4X4X4X*X2X*X4X2X3X2X, %X@ 5 7 * * ",
"a a a h h k k l s %.E.S #.-.O.+.-.1.eX9X0X0XqXpXjXjXkXlXmXmXAXSXSX6X5X%X$X$X$X1X$X5.p._._.a.@X4X1X2X3X4X3X&X3X3X2X-Xo 1 K z z i ",
"a a j h a N N N s $.^.[ #.-.O.-.+.1.eX8X0X0XqXpXjXjXjXlXmXmXAXSXSXAX;X$X$X$X2X/ 3X_ z._.D.W 3X4X1X3X3X$X4X4X3X3X1X4XE o.:.%.| z ",
"y a h h h s l l y %.L...-.-.O.-.+.<.,X8X0X0XqXpXjXjXjXzXmXmXAXSXSXFXxX4X$XE $XW #X^ z | R =X4X3X4X4X4X3X3X1X+XE 4XQ -X:.$.%...d.",
"a y a h h a y a a %.C.%.+.-.o.@.+.<.(.8X8X9XqXpXpX8XjXzXlX/.AXAXDXFXFX6X$X( ^ E 2X$X#X+X4X1X*X4X1X1X1X4X1X4X3X, @XE ^ Q.H.H...| ",
"a h h j y x 0 t u %.L.%.+.-.o.@.@.<.(.eX9X9XqXpXpX,XgXkXzXH.ZXAXDXSXFXFXeXW T %XE 1X4X1X*X^ Q 3X3X4X$X3X4X*X3XQ G &XE !.H.K.%.m ",
"y a h h a k N k k } | g @.@.` @.@.:.~.7X8X8XqXpXqX/.gXkXkX:.MXNXZXDXGXFXFXzXU ^ Q E $X2XE T 3X4X4X4X4X&X2X3X+XI #X3XW !.U.K.l.m ",
"x a y l N _ ` _ N N b b O.O.` o.o.+.P.,X7X8X0XpXpX/.gXgXkX%.gXnXnXNXDXGXGXFXGX4.$X^ L L ~ 4X4X4X*X*X&X3X$XT Y &X3X*X=.!.U.K.$.m ",
"y a y N N N N N N N f g ` o.` ` { O.<.` P.~.,X~.~.^.sXsXgX%.iXsXvXMXVXVXVXVXVXVX] #X4X3X1X*XR I Y Y Y I 3 +X#X3X$X#XO.^.U.K.l.A ",
"1 a y N ` N N N N N N i @ ` ` ` ] ' ;._ ' ' -.3.4.:./.(.<X%.7XiXgXgXnXcXXXk.j.e.XXV T ! T 2 <.a r.8.& ,X(.Q #X$X1XQ /.^.I.I.K.| ",
"1 y a N ` N N N N N 2 . = ;.;.-.,.,.2.2.3.4.4.>X4.1.<X7XrX/.gXnXnXMXdXVXNXBXBXtX} B +.& c b P.`.n 0.7 (.8X@.+X#X#X] (.!.K.K.l.[ ",
"1 a a N N N ` N N N h J ' ,.,.2.,.2.3.3.4.:X>X3.{ } N.`.'.XX XOXOXOXV.NXcXsXX.N.OXM.sX~.@.k 1. XA.8.7 (.iXaX] T U !.).!.K.U.l.A ",
"a x a N N N N N N N ` ' ,.2.,.2.2.2.3.3.4.4.-.z g g D D s.f.j.S.S.b.0.OXD X. X X XW.kXfXvXfXP. X Xf & (.8XiXaX,X/.(.(.!.K.I.H.[ ",
"a y h z N N N N k i ` ' ,.2.,.2.,.2.3.3.3.+.} z t C ..M.Y.W.`.'.k y.5.z <  X X XA.&.sX{.yXfXE.d. XZ.* /.8XiXaXrX)././.!.I.!.K.| ",
"y 1 a 5 5 5 5 5 5 5 { O.O.@.o.` ` ;.,.-.o.} B } g S  .M.E..XyXuXR H @ & -  XZ.g n U..XV *.sXR.g `.OXS /.7XiXaXtX).).).!.K.K.l.} ",
"y y y p u p p u 6 5 z { } } { y < j ` } } s { $.d S } ..M.W..XyX>.( 1 0 & B s.e 5.1.D.n 5.sX@.8.Z  X X{ U.Q.!.K.$.l.l.%.| | A g ",
"y 1 h p p p p p i 5 i z z z j h ] l j B t  . .$.u B S S X.M.W.).I W I & b cX].6.6.<.x.5.5.sX` y.5.X. XA 8 6 6 6 8 8 8 6 6 7 & @ ",
"1 1 1 p u p p i 7 5 - - i 2 J O.S j j j  .%...$.u z z B [ X.N.U T ^ < D.u.u.u.u.u.P.z.5.p.sXk c n u  XB.8 8 6 8 8 8 8 8 5 & * @ ",
"< y 1 p z z u j t 9 - < $ = 2 ; ; # = 2 a a a h ; ; < z A [ X., E T 8..X).C.L.W.W.).yXz.tXsXl j & @  XX.6 6 8 6 8 8 8 6 7 & * @ ",
"1 1 1 5 8 6 5 6 7 6 t # X X o X $ $ $ o o # # # # # : y z S  ., T 1 n E.&.l 1 y 1 tXsXuXsXsX3 , & % B.& 9 5 6 8 8 6 6 5 7 & * + ",
"< 1 1 p p p p p t k k # X X X # # X o X $ # $ # # $ 2 2 z B M.k 1 f b &.B B z z s uXuXsXuXyXE ^ @ & @ 7 5 7 6 6 8 6 6 6 7 * * + ",
"< < y k N k k N V N 1 X O X X X X $ X # $ o # $ # # = 1 C X.W.N.&.v w ` . . .   . uXuXuXuXP.+X^ = q * 7 7 5 m l.K.Y.L.J.%.} i * ",
"1 2 1 V k k k k l N 2 . X # # # # # # = : : : : # = o k M.C.C.W.W.M.J.P.1.P.P.Q.1.iXtXtXtX~.2.,.@.| ` -.1.1.tXsXsXuXuXuXuXuXuXtX",
"1 1 < k k k k k k k 2 X X X # o o o # # # $ # = # # X z C.C.C.W.W.W.,X,X<XrXrXiXiX7XrX<X(.7XI.J.$.:.<.>X8X7X).uXaXuXuXuXyXyXtXuX",
"i g g g g g g g g g d t t t t 0 X X X o X X X $ # X X B C.C.C.C.W.W.(.(.(.rXiXiXiXiXiX7XtX<XQ.J.J.:.<.>XeXY.).yXyXtX.X.X.X.XtXtX",
"g Z Z Z A A Z S S A Z S C Z m b X X o X X X # o X X X [ M.N.C.C.W.W./.~.(.tXiXrXrX7XrXrX(.(.Q.J.J.:.1.>XeXl.Y.)..X).W.V.Z.W.W.W.",
"g C Z C Z Z Z Z C Z Z Z v C v b % X X X X o X X # X X  .M.N.N.C.C.C.~.(.(.7XrXrXrX7XrX<X(.^.U.U.:.:.1.>X>XP.h.E..XY.a.8.8.8.8.d.",
"b v v f f v v v v v v v v f v b C g g f < X X $ X X 2 ` &.&.N.N.C.N.~.(.,X<X7XrXrX7X7X<X,X/.P.1.:.-.1.~.>X~.8.Y.).E.E.R.L.N.Y.E.",
"g f f f f f f f f f f f v f v f m F Z Z B X X X X X l o.[ *.&.M.&.1.~.(.<X<X7X7X7X7X7X7X(./.U.H.#.-.1.Q.>X~.| z.E.^.T.T.Y.L.L.T."
};
