/* XPM */
static char *ba62148e8a9a43b6b966ed9a710c371fc4wRWXONCKWhy2zq[] = {
/* columns rows colors chars-per-pixel */
"64 64 256 2 ",
"   c #07080A",
".  c #3B190E",
"X  c #313632",
"o  c #0D2B2A",
"O  c #421E0E",
"+  c #492916",
"@  c #522E1B",
"#  c #58351C",
"$  c #4B270F",
"%  c #5D3A24",
"&  c #583626",
"*  c #4C3123",
"=  c #613E28",
"-  c #623E31",
";  c #394D3A",
":  c #164138",
">  c #534936",
",  c #664529",
"<  c #6C4B34",
"1  c #694938",
"2  c #734D37",
"3  c #69523A",
"4  c #74543B",
"5  c #7B5B3C",
"6  c #765836",
"7  c #784A2D",
"8  c #7E613C",
"9  c #61401F",
"0  c #2C3E45",
"q  c #163C47",
"w  c #0E4A54",
"e  c #384B49",
"r  c #315254",
"t  c #386158",
"y  c #16586C",
"u  c #2E5967",
"i  c #286977",
"p  c #356879",
"a  c #2B737C",
"s  c #346A71",
"d  c #196375",
"f  c #464A46",
"g  c #49544B",
"h  c #5B5847",
"j  c #485958",
"k  c #565C56",
"l  c #534E4C",
"z  c #6B5A45",
"x  c #6D5C4A",
"c  c #665646",
"v  c #7C5C43",
"b  c #765947",
"n  c #735E51",
"m  c #6D4F49",
"M  c #566656",
"N  c #6B624D",
"B  c #73634B",
"V  c #7A654C",
"C  c #7B6548",
"Z  c #666558",
"A  c #766754",
"S  c #727457",
"D  c #455D66",
"F  c #486769",
"G  c #556766",
"H  c #56736A",
"J  c #497579",
"K  c #587778",
"L  c #4A6D72",
"P  c #787568",
"I  c #657979",
"U  c #6F6F69",
"Y  c #86663D",
"T  c #946F3E",
"R  c #855536",
"E  c #825D46",
"W  c #815F55",
"Q  c #836443",
"!  c #866943",
"~  c #8A6C45",
"^  c #84644A",
"/  c #89664C",
"(  c #85694B",
")  c #8B6C4B",
"_  c #8D6647",
"`  c #8D714B",
"'  c #8C7449",
"]  c #93744C",
"[  c #96794C",
"{  c #9A7C4E",
"}  c #937744",
"|  c #8C6C52",
" . c #896755",
".. c #916E54",
"X. c #936D5A",
"o. c #8B7356",
"O. c #937453",
"+. c #967B53",
"@. c #9A7C54",
"#. c #95745B",
"$. c #99765C",
"%. c #9B7B5B",
"&. c #967B58",
"*. c #956E4D",
"=. c #A37D56",
"-. c #AD7B4F",
";. c #867766",
":. c #9D7C63",
">. c #997865",
",. c #927971",
"<. c #A27E64",
"1. c #A27C69",
"2. c #A07E72",
"3. c #5B867E",
"4. c #708479",
"5. c #9D835B",
"6. c #998356",
"7. c #9A824B",
"8. c #A1835C",
"9. c #A48459",
"0. c #A1884E",
"q. c #9B8667",
"w. c #858576",
"e. c #958677",
"r. c #8E886A",
"t. c #A38364",
"y. c #A5836B",
"u. c #AC8B6C",
"i. c #A88867",
"p. c #AD8C73",
"a. c #A88875",
"s. c #B38C74",
"d. c #B48C7A",
"f. c #BA8F7C",
"g. c #AB9376",
"h. c #B49375",
"j. c #B5937A",
"k. c #BB957C",
"l. c #BC9B7D",
"z. c #B79977",
"x. c #B0916D",
"c. c #B5A27E",
"v. c #C29B7C",
"b. c #C7A57A",
"n. c #387A89",
"m. c #337288",
"M. c #477986",
"N. c #577C88",
"B. c #4F7E95",
"V. c #6A7B82",
"C. c #3C8896",
"Z. c #3DA59C",
"A. c #47838B",
"S. c #578687",
"D. c #4B8C9C",
"F. c #468998",
"G. c #578A97",
"H. c #48959C",
"J. c #57969B",
"K. c #58918F",
"L. c #688589",
"P. c #678B92",
"I. c #679699",
"U. c #739799",
"Y. c #70908C",
"T. c #50A39D",
"R. c #68A39B",
"E. c #498DA3",
"W. c #578CA3",
"Q. c #4A97A6",
"!. c #5394A4",
"~. c #539CAB",
"^. c #5A9CAB",
"/. c #5898A6",
"(. c #4C9AB3",
"). c #539DB3",
"_. c #5A9DB4",
"`. c #599CB8",
"'. c #649CAC",
"]. c #6799A5",
"[. c #749DA8",
"{. c #669BB6",
"}. c #7298AE",
"|. c #4CA2A9",
" X c #5BA3AC",
".X c #57A3A8",
"XX c #4DA3B2",
"oX c #54A3B3",
"OX c #5BA4B4",
"+X c #5AA6BA",
"@X c #56B5B2",
"#X c #67A4AA",
"$X c #66A6B7",
"%X c #74A7B6",
"&X c #72ABAE",
"*X c #5BA7C4",
"=X c #69AEC4",
"-X c #8D958F",
";X c #BB8F81",
":X c #A89585",
">X c #BD9C84",
",X c #B79882",
"<X c #A78E89",
"1X c #95A49B",
"2X c #BBA488",
"3X c #AFA895",
"4X c #8BAAAF",
"5X c #B0B7AF",
"6X c #839AA5",
"7X c #C29583",
"8X c #C39C83",
"9X c #C79B8A",
"0X c #C5A285",
"qX c #C5A38B",
"wX c #CBA68C",
"eX c #CCAA8C",
"rX c #C8A886",
"tX c #D2AA8B",
"yX c #CDAA93",
"uX c #CDAC9B",
"iX c #C8A693",
"pX c #D3AD94",
"aX c #D7AB9A",
"sX c #CCB599",
"dX c #D4B395",
"fX c #D4B39B",
"gX c #DBB49C",
"hX c #D7B99B",
"jX c #CBB28D",
"kX c #E3B79E",
"lX c #D9B9A4",
"zX c #CAB9AF",
"xX c #E3BCA4",
"cX c #E3BBA8",
"vX c #DBC4A9",
"bX c #D9C9B7",
"nX c #DDD3B8",
"mX c #CBC4B5",
"MX c #E6C5A8",
"NX c #E5CBB4",
"BX c #E7CAB5",
"VX c #E4D2B4",
"CX c #EBD1B5",
"ZX c #E4D4BA",
"AX c #EBD6BD",
"SX c #F5D4BA",
"DX c #DEC19D",
"FX c #9EB7C7",
"GX c #AFC8CF",
"HX c #D1CFC8",
"JX c #E5D6C3",
"KX c #EAD5C4",
"LX c #E9D9C3",
"PX c #E9CFCD",
"IX c #E2E7E0",
"UX c #B2C3BD",
/* pixels */
"uXuXuXiXiXiXqXqXiXqXqXqXwXyXyXyXuXuXuXuXfXdXdXdXdXDXsXmX-XN.].p n.I.S.GXHXHXzXBXvXvXvXvXnXvXvXvXBXBXBXNXVXVXZXZXJXKXKXKXKXKXAXSX",
"lXuXiXqXqXqXiXiXqXqXqXqXyXyXyXyXuXuXuXuXuXfXdXdXdXeXsXHX4.K '.p i ].J F G zXbXlXvXlXvXvXvXvXNXBXBXBXBXNXVXVXZXZXJXKXKXKXKXKXAXSX",
"qXqXyXpXyXiX9X>XqXqXiXiXyXyXyXyXaXaXfXuXsXfXdXdXgXMXlXbXI N.%XC.F.].s F G -XbXbXNXMXhXMXMXMXMXMXBXBXBXNXVXVXZXZXJXKXKXKXKXKXLXAX",
"t.u.l.wXpXwXqX>XqXqXiXiXiXiXuXuXaXaXfXfXsXhXhXhXdXMXlXmXL.P.^.Q.i $XA.J U.H HXzXvXMXxXMXMXMXMXMXBXBXNXNXVXVXZXZXJXKXKXKXKXKXLXAX",
"+.+.%.i.h.l.wXpX9XqXqXiXiXiXuXaXaXgXgXfXhXhXhXhXxXaXuXPX6XG.~.(.d `./.p [.H 5XHXlXxXMXMXxXMXMXCXBXBXNXVXVXVXZXZXJXKXKXKXKXLXLXLX",
"@.] ] @.=.i.h.8XwXiXyXiXiXiXuXuXaXaXgXfXhXhXlXlXcXcXPXHXK J OXXXQ.E.)./.#XS.4.IXbXNXcXxXMXMXMXvXNXNXNXVXVXVXVXZXJXJXKXJXKXLXLXLX",
"%.@.@.%.%.%.$.<.k.>XqXiXyXyXuXuXaXaXfXfXhXhXlXlXlXBXzXV.F s C.(.(.(.oX~.H.J.J U.HXbXBXBXBXZXnXmXZXNXVXVXCXCXCXZXAXJXKXJXKXLXLXLX",
"%.$.%.:.:.#.#.$.#.:.s.>XwXyXfXfXdXfXfXfXhXhXlXlXbXzXI D 4XD.a +X(.+X(.XX|.J.I.t 1XmXPXPXHXmXHXHXnXNXVXVXCXCXCXCXAXJXJXJXLXLXLXLX",
":.>.>.<.<.>.$.$.#.$.%.t.u.l.eXdXhXsXyXxXpXxXlXzXHX-XF [.J. XoX(.`.(.(.XXXX|.J.I.r 1XUXU k j t 1XHXJXZXvXCXCXCXCXCXZXJXJXJXJXJXAX",
"1 4 ^ >.1.1.:.:.#.#.#.O.%.t.x.z.2XjXhXxXgXkXuXbX5XF I.J..XoXQ.+X`.`.).XXXXXX.X#X}.u r V.N.U.K.r 1XJXJXZXSXCXCXBXAXAXLXLXLXLXAXAX",
"- & - 2 v  .>.y.<.<.%.%.%.=.8.i.g.c.sXdXxXxXlXHX4.K.&XOXQ.XX~.`.`.OXoXXX|.|.~.!.{.B.p %X}.W.$XI.G bXnXZXCXBXCXCXVXZXnXnXZXVXVXCX",
"- & & - , < 4 v | #.%.<.t.8.8.5.q.q.g.l.dXhXbX5XH K.C.@XXX+X`._.!.~.oXoXoX+XOX_.W.$Xm.m.$X^.Q.'.G 5XJXZXBXBXSXSXCXVXZXZXZXZXZXCX",
"W b 1 1 - % % % < 4 Q ..$.t.i.u.q.q.t.x.z.>XmX4.3.#X$XQ.XX+X`.~.^. X_.~.~.~.).~.~.$X`.m.~._.`.'.I 1XIXbXBXMXSXBXNXVXnXnXVXVXCXCX",
"p.1.#. .v 4 < < % % , 2 v | >.y.u.g.x.h.i.a.3XM Y.&X XoX(.).`._.+XOX~.~.~.~.).oX+XQ.).m.Q.$X~.G.I 4.IXbXBXBXSXMXCXVXnXnXnXNXMXMX",
"..#.<.p.y.>./ v < < , = , 1 b E $.t.u.u.i.g.w.H U.s w E.=X`.`.OXoX~.~.$X$XOXOX$X).~.+XC.F.$XD.[.K -XIXnXAXBXSXBXNXnXbXvXvXvXlXhX",
"= , 4 | :.1.y.y.1.>. .v 1 1 1 < 2 R *.@.x.2XZ 3.S.d $Xy E.$X+X).+XoX X$X~.n.i i oX~.oX~.m._./.].H 1XHXmXvXfXfXfXiXiX2X2X2Xz.h.h.",
"@ @ # = < 4 E / >.1.y.y.:...^ E R 7 7 R R &.M 3.~.oXOXH.s #X|.+XoX+XOX.Xi a F.a a Q.=X`.m.!.#XU.U r.3X2X,X>Xp.p.j.t.h.p.i.y.z.i.",
"% @ $ $ @ # = < < v / $.<.t.t.y.$.X.E 7 7 6 ; R.oX*XoX.XJ I.oXXX)._.OXi A.#X.X%Xn.C.$X`.m.D./.U.Z o.,Xg.,Xa.j.p.u.y.u.i.z.u.x.x.",
"/ E 4 2 , % @ $ # % , < 5 ) %.t.a.:Xa.:.:.N r #XQ.*X+X$XN.B.$X+X{.%XB.p {.'.].'.!.n._._.C.C.~.I.U g.,Xg.j.,XdXqXdXhXz.) %.) 5 E ",
"#.#.#.>.%.| v 2 < , , # # 9 , < A o.>.p.,Xw.L #XOX`.`.$XW.G.=X`.$XG.p {.%X{.{.!.$XF.^. XQ.C.+XK.P 2Xo.o.v 2XMXfXdXhXy.# , , , , ",
") ) ) #.$.$.#.#./ / / Q 5 7 , # & & , 5 ^ A S.^.{.^.{.{.{.{.*X(.$Xa F.$X~.=X_.$X X X.X.XQ.n.=XJ -X2X3 4 , j.MXpXhXpXs.4 4 5 C 4 ",
"O.) ) ) ) / / ) #.O.%.%.@.] ) ~ v < 7 , % > K S.s J G.$X{.`.XXXX@XH..X~.+X~.`.$X~.$X.X/.!.a $XL zX2X| q.:.>XxXj.X./ #.#.<.:.p.u.",
"~ ~ ) ] ) ~ ^ ~ ..] ] ] +.@.8.9.i.-.-.T E c H K L L u G.{.^.|.@XZ.@X|.Q.$XF.'.^..X.X.X.XJ.p G.L.bX>X>.y.t.8XlX$.2 2 4 < 2 < 3 < ",
"~ ~ ~ ~ Q 5 5 Q ) ) ] ] ] ] { { { -.-.-.;X;.K S.IX1Xo u '.$X.XT.@XT.H.A.s s u M.$XH..X.XI.J K -XbXj.v 5 = k.cX<.| $.^ @ @ & % & ",
"` ~ ~ ! ! 6 , ! ` ) ` ] ] [ { { { { 9.u.;.X U.J UX1X  : G.%X.XT.#XJ.F e   l -XD M. XOX~.].F Z 3XuXj.E / / u.xX#... . ./ ^ #.:.>.",
"~ ~ ~ ! ! 6 , ! ` ` ] ] [ { 6.6.6.[ g.3 k L.I.K.I HXK 4XM.].#X#X%Xu V.UX  U IX4XB._.OX/.I.j N a.p.i.%.h.i.p.qX| #.#.>.#.>.y.p.a.",
"~ ~ ~ ! ! 6 , ! ! ~ ` ] ] [ [ [ 6.r.S M P.}. X#XK I GXGXp %X#X.XG.M.IXHXe.zXHXK W.OX+X^.U.g V ] ) O.t.h.i.#.$.Q / / ....X.:.y.q.",
"~ ~ ~ ! ! 6 7 ! ` +.@.8.9.6.6.6.6.r.g P.FX^.+X X[.L F u G.#X.X.X/.s 4XHXHX5XG N.'.+X+X'.Y.f O.Y Y ~ 5.i.%.) Q / ) / | | | >.q.:.",
"~ ~ ` ! ! 8 6 ~ ` +.8.i.9.9.6.+.q.S K W.{.*X~..X].4X4XU.6X4XI.=X&XK.t t t r S.&XoXoX~.'.L.h q.) 8 ~ 5.8.%.O.5 E ../ | | | #.q.q.",
"~ ~ ` ! ! 8 6 ` ~ +.5.i.9.6.[ [ 6.h U._.`.*X~..XU.V.j G j j L t J 4X4XP.R.R.&X~.oXoX~.].L.U g.5.` ] 5.6.@.@.~ Q / ^ ^ / | #.q.q.",
"! ~ ` ! ! 8 6 ~ ` +.8.i.9.9.6.6.' M J.+X*X(. XI.I G w.X m m X I I j D U.[.#XF.OXoXOX'.[.I P e.q.5.5.5.i.6.+.%.] ) ^ / | ( | o.| ",
"Y ~ ~ Y ! 8 6 ~ ~ O.6.9.5.6.6.6.S M R.E.+X(..XI.K 5XzXm m b <XHXHXGX6Xw &XJ.=X~.~. X].U.H U P ;.+.] +.i.+.! ` Y ^ Q ^ ^ v 4 3 , ",
"~ ! ] ~ 5 %.l.u.` ` ] +.[ [ { 5.S 4.#XJ.OXOX/.I.I zXzX<XPXPXHXUX5XL.u G.#X!.OXOX.XJ.I.6XG w.;.;.&.+.+.5.5.+.) ` ^ ! ) ) ^ 4 , < ",
"~ Y ` ~ 8 t.2Xp.#.] ] ] [ [ 6.q.S j w J.Q.n.$X[.G k P P <X,.-Xj o J ].].#X$X~.C.#XK.: 4.U :X:Xg.c.z.i.5.i.h.u.%.t.h.%.Q ( v < 6 ",
"~ Y ) ~ ^ i.0Xx.%.O.` ] [ { 9.q.w.o t #XH.y !.].r f X l l j 0 0 P.[.G.'.^. X+Xd A.&Xt o P nX:X2XsXc.q.O.x.eX0Xi.z.eXt.4 v v , 2 ",
"~ ! ~ ) ) i.l.u.:.O.` ] +.@.9.q.S e 4XJ.F.m.n.p L.4Xj e e K F 4X[.].#X'.$XC.y a $XI.4Xg -XbXsXjXDXl.%.5.l.dXyX>X0XqX:.v b v 3 3 ",
"~ ~ ) ( / y.h.y.t.$.O.O.+.6.9.q.;.4.L.].~.E.y M.%X4X6XI.[.].%X].J.].].!.y w n.D.G.I.U.4.3XsXhXeXrXx.&.&.u.0XwXqXyXp.#.v v b b z ",
"~ ~ ) ^ / :.p.t.y.:.O.+.@.+.6.5.a.k I #X/.E.y F.FX%X&X].J.J.%X/./.#X#Xa m.F.n./.w S.Y.> 3XsXjXb.5.5.+.~ &.h.wXwXqXX.v b 3 1 v 1 ",
") ~ ) Q / :.y.y.y.:.$.@.@.+.{ @.q.h Y.s n.~.E.i %X4X/.$XH..X!.OX^.J.D.F.C.E.$X'.M.w I U g.g.b.z.] +.@.+.&.i.h.l.<.v 4 v  .| ^ b ",
"^ ) ( Q | :.a.a.y.t.%.%.@.[ [ +.t.;.; : K.^./.m.W.'.J.H.~..XOX~.^./. XD.D.^.G.].[.e X :Xr.' 7.Y } ~ ' +.` 5 5 ..E 5 v >.qXiX,Xp.",
"~ ^ #.Q ^ :.y.p.p.p.:.O.@.+.] +.+.q.> H R.K.!.D.p G.#X$X.X~.^.^.~.~. X/.^.M.u ].U.j k r.q.` T } ~ } [ [ ' Y 5 6 6 5 5 $.wXqXyX,X",
") Q ) Q C #.:.y.j.p.t.&.@.+.[ [ +.5.S M Y.K./.J.i p p a n.D././.~.H.^.D.#X].q P.G k Z S o.+.{ T { { @.{ [ ' ! Y 8 Q v :.eXqXwXj.",
"! Q ( v 5 / #.#.y.$.O.@.+.] [ [ 7.6.r.M H I.J.J.$XW.p y u n.!. X~.Q.!.^.G.[.F e g Z P B C 6.9.} [ [ { { [ ~ ! ! ! ! Q %.wX8X8Xy.",
"! Q ^ v 6 Q / | :./ ` @.] ` [ } } 7.6.S g Y.K.J.D./.'.}.'.].J.D.~.~.!.'.G.P.K X Z P S V C ` @.i.8.=.=.@.+.] ] ) ^ ( E $.8Xj.k.1.",
"~ ! ! Q 5 v / ^ q.| O.5.] ' [ } } 7.+.r.h 3.K.H.Q.!./.W.G.W.^. X~.D./.G.[.K e U P A B V ( ( o.t.%.%.@.@.O.O.) ) ( / Q #.>Xs.k.1.",
"~ ) ! ~ Q v | ^ %.O.+.%.+.[ [ [ 7.} @.y.P G R.H.Q.Q.W.W.W.G.H.H.Q.E./.G.U.j k P A A V V C C C v | ) ) ) | ..| | ^ ^ v X.7Xj.;X1.",
"` ` ~ ` ! Q O.) ) O.] ] +.{ { 7.0.} 9.y.;.j J.H.Z.E.W.W.]./.Q.H.Q./.J.I.L e w.c A V ( V v V b % % % & % % , % & , , & E ,X;X;XX.",
"` ] ~ ] ~ Q O.~ ) @.+.] +.{ [ 7.0.{ 9.p.A G K.H.Q.Q.!.W.W.D.H.H.~.D.G.P.H M P A V B V ( B V V , , = % & & @ + $ $ O . < d.;Xd. .",
"#.] | ) ) ) ) ~ ] ] ] ] { { [ [ =.=.s.:.A G S.H.H.C.^.D.W.D.H.H.E.~.G.S.j Z A A V V B B C ( z y.p.p.<.../ / v < < @ @ < f.;Xd.E ",
"] | / ( ( / ) ` ) ` ] ] ] +.=.9.=._ E 1 l k P.J.Q.F.!.D.W.D.J.D.F.D.G.L.g P B V C V B B B V b ,XyXqXk.u.y.y.y.:.X.^  . .d.1.1.W ",
"~ ) ) ] ` ~ ^ Q O.) ) O.8.%.E , , # # & l G G.A.Q.E.E.F.W.D.D.D.D.F.G.K g P B V C B B V B B b qXyXwX>Xj.h.h.j.j.s.p.s.y.d.1.2.>.",
"O.` ! Q ! ) | #.) ....^ 2 % & # # # , 1 l j I.J.H.E.E.E.E.F.D.D.D.G.P.e Z A B V B B B A B b b >XyXqX8X0X0X>Xk.k.j.d.d.d.7Xs.;Xp.",
"! ! ~ ~ ) ) ^ C v < & @ & & & @ % 5 :.a.;.j S.A.F.E.F.E.E.F.E.D.F.I.K X U N A A B B B A B x z ,XyX0X8X0XwX8Xj.s.j.d.s.d.7Xk.;Xp.",
"` ) ~ ! v 2 % @ O + & * @ & m / t.i.p.:XP e S.G.A.F.n.W.E.F.D.F.M.I.F f Z A B B B B N N N B x ,XwX0X8X8X8Xl.h.u.s.h.s.k.;Xd.f.p.",
"#.C , # @ + + + & @ @ % m  .>.y.u.x.j.iXe.f K A.A.F.p G.G.A.D.A.N.K G Z h A x 3 z x N x x B b ,XwXeXeX0X0X0X8Xz.s.j.s.v.7Xf.k.s.",
"@ + + + @ @ @ + @ = v X.y.a.d.s.z.z.z.yXe.> H 3.S.M.u N.N.B.G.M.L.j 4.U h B x * 3 x B B x B c a.z.0XtX0Xv.8X8Xz.k.v.s.v.8X7Xk.s.",
"* & & * + + & 1 X.>.:.y.p.p.d.l.l.b.v.yXg.c ; e H r e r P.L.K L.j k 1Xh N A x * c n c B z x V iXwXeXeXeX0X8X8X8Xv.k.s.<.u.v.v.s.",
"* . . * m  .2.d.:.y.a.p.j.j.h.l.v.b.v.tX,Xx g g X j G e e G G M f U 3Xc c z x x c x x n x z o.uXeXeXrXeXtXwX8Xk.k.f.s.u.s.7Xv.s.",
"* m  .,.,. .b 1 >.1.y.i.h.l.l.b.b.b.tXtXwXV h h M k Z k f f f k P e.:X3 B B z N x x n x n 3 q.lXeXpXdXpXwX9X8X8X8Xk.j.k.9X9X9X7X",
",.a.<X2. .1 1 b :.:.$.>.u.l.0XrXb.b.tXtXfXo.z c N N N x c :X3X3X,.;.e.3 z 3 c B B c n c n 3 g.vXdXpXtXtXtXtXpXpXwX8X7X9XwXwX9X8X",
"a.a.a.a.a.:.:.a.d.s.y.i.j.8X0XeXrXrXdXwXkX>.z z h N B & . e.:Xe.,.+ + * x A B 3 n c n c b 3 2XMXpXk.i.s.eXgXgXtXeX8X7X9X9X7X7X7X",
",Xj.p.d.,X,X>X2X>X>Xl.l.qXwXwXwXjXeXdXeXlXy.3 z x c z 1 @ q.a.,Xn . + , 3 3 N x x c n m z b yXhXdX8Xs.s.wXgXgXpXpX9X7X7X7X7X;X;X",
"l.,X2XqXqX>X>XqX>XqX0XqXyXyXiXyXjXsXdXpXlXp.3 z c c b & @ a.p.y.X.O . , x x x h x c n m 3 ^ hXfXxXxXgXgXgXgXxXxXaXyX9X9X7X7X7X;X",
"eXrXqXeXwXqXqXqXqXwXqXqXyXyXiXyXsXsXyXpXlXj.3 z z z v & # a.a.a.b + + % B x c c c c n b 1 | vXdXdXdXpXgXgXgXaXaXaXpXwX9X9X9X7X;X"
};
