/* XPM */
static char *_e10f902268a44a2c2a9e76a56bc1ba0oKrsfexS0MEkF6Fd[] = {
/* columns rows colors chars-per-pixel */
"64 64 181 2 ",
"   c None",
".  c #000000",
"X  c #070707",
"o  c #140B03",
"O  c #1D1006",
"+  c #070D14",
"@  c #0A131D",
"#  c #0F1216",
"$  c #1C1D1E",
"%  c #261608",
"&  c #361F0C",
"*  c #250F0F",
"=  c #3A210D",
"-  c #2D2202",
";  c #0D1B26",
":  c #0D1C2A",
">  c #0A1622",
",  c #201E24",
"<  c #12232F",
"1  c #0F2031",
"2  c #132533",
"3  c #14293C",
"4  c #292927",
"5  c #392A23",
"6  c #343434",
"7  c #2E2F30",
"8  c #4D0203",
"9  c #700202",
"0  c #452911",
"q  c #4C2C11",
"w  c #502F12",
"e  c #543113",
"r  c #5A3414",
"t  c #47280F",
"y  c #653B17",
"u  c #6B3E18",
"i  c #653A16",
"p  c #513624",
"a  c #504001",
"s  c #645000",
"d  c #6F5A00",
"f  c #6F4019",
"g  c #74431A",
"h  c #79461C",
"j  c #7E491D",
"k  c #755B04",
"l  c #554B25",
"z  c #162C44",
"x  c #162E4A",
"c  c #1A354A",
"v  c #193554",
"b  c #1D3B54",
"n  c #193658",
"m  c #1D3B5B",
"M  c #173052",
"N  c #243445",
"B  c #333D4D",
"V  c #1D3D61",
"C  c #1F405E",
"Z  c #22445C",
"A  c #204056",
"S  c #34465D",
"D  c #1F4062",
"F  c #224463",
"G  c #244965",
"H  c #264D6A",
"J  c #284F6C",
"K  c #29516C",
"L  c #244B7A",
"P  c #224774",
"I  c #2A5471",
"U  c #2C5879",
"Y  c #305F7B",
"T  c #30617D",
"R  c #4E4E4D",
"E  c #484444",
"W  c gray33",
"Q  c #434F58",
"!  c #5E6044",
"~  c #405C63",
"^  c #43687E",
"/  c #506574",
"(  c gray39",
")  c #6C6D6E",
"_  c #777777",
"`  c #717170",
"'  c #810000",
"]  c #9E0406",
"[  c #A60306",
"{  c #CD0507",
"}  c #D70000",
"|  c #D80000",
" . c #FF0409",
".. c #844D1E",
"X. c #8A4F1F",
"o. c #8B511F",
"O. c #907203",
"+. c #8D5220",
"@. c #955622",
"#. c #A35E25",
"$. c #A76026",
"%. c #AF6528",
"&. c #AF8A05",
"*. c #C79E02",
"=. c #C9A101",
"-. c #D5AA03",
";. c #ECBA07",
":. c #FFCD00",
">. c #958964",
",. c #275286",
"<. c #28568A",
"1. c #2B5A8D",
"2. c #2A5683",
"3. c #2C5E94",
"4. c #2F6194",
"5. c #2D619C",
"6. c #316495",
"7. c #356C9C",
"8. c #336897",
"9. c #39719B",
"0. c #32648E",
"q. c #2E62A3",
"w. c #3067A8",
"e. c #326AAC",
"r. c #3269A5",
"t. c #3A74A3",
"y. c #3E7BA4",
"u. c #3D7BAB",
"i. c #3A76AF",
"p. c #356FB1",
"a. c #3672B3",
"s. c #3977B5",
"d. c #3977B8",
"f. c #3C7CBB",
"g. c #3D7CB5",
"h. c #6C7987",
"j. c #407FA5",
"k. c #407FAD",
"l. c #3F81BF",
"z. c #788288",
"x. c #4182AD",
"c. c #4384B1",
"v. c #458AB5",
"b. c #478EBB",
"n. c #488FBA",
"m. c #4284BC",
"M. c #4890BB",
"N. c #3F81C0",
"B. c #4084C2",
"V. c #4489C6",
"C. c #468DCA",
"Z. c #4B95C4",
"A. c #4D98C2",
"S. c #4790CC",
"D. c #4891CE",
"F. c #4D99CA",
"G. c #4B96D1",
"H. c #4D9AD5",
"J. c #509FD9",
"K. c #52A3DC",
"L. c #54A6DC",
"P. c #56ABE4",
"I. c #58AFE5",
"U. c #5BB4EC",
"Y. c #5DB8EF",
"T. c #5DB9F1",
"R. c #858686",
"E. c #999999",
"W. c #AFAFAF",
"Q. c #B4B4B4",
"!. c #BEBEBE",
"~. c #B0B0B0",
"^. c #C9C9C9",
"/. c #C3C3C3",
"(. c #D9D9D9",
"). c #DFE0E1",
"_. c #E9E9E9",
"`. c #E6E7E8",
"'. c #F0F0F0",
"]. c #FFFFFF",
"[. c #F7F8F9",
/* pixels */
"                                                                                                                                ",
"                                                                                                                                ",
"                                                                                                                                ",
"                                                                                                                                ",
"                                                                                                                                ",
"                                                                                                                                ",
"                                                                                                                                ",
"                                                                                                                                ",
"                                                                                                                                ",
"                                                                                                                                ",
"                                                                                                                                ",
"                                                                                                                                ",
"                                                                                                                                ",
"    (.J A.A.A.A.A.A.A.A.A.A.A.A.A.6 b A.A.A.A.A.A.A.A.A.A.A.A.A.A.A.A.A.A.A.A.A.A.A.A.A.A.A.A.A.A.A.A.A.A.A.A.A.A.A.A.A.A.A.A.G ",
"  # ].z.n.n.b.M.M.b.M.M.n.n.n.M.x.].Q.M.M.n.M.M.n.M.M.M.M.b.n.M.M.n.M.M.M.n.M.n.n.M.M.M.n.M.M.n.M.n.M.M.M.n.M.n.n.M.M.M.M.n.M.2 ",
". ^.].(                           ].(.7                                                                                         ",
"R.].].6         . . . .           ].].^.                                                                                        ",
"6 ].].`.      Y T.T.T.T.j.      R.].].^.X . . . . . . . . .     c Z Z c         |     . . . . . .       .                 9.;   ",
"  . ` ].W   v.T.T.T.Y.Y.Y.I.  . ].(.4 ^ Y.. T.T.@ Y.T.T.T.T.    J Y.T.Y.v.      } }   Y T.T.T.Y.Y.    P.T.b.            x.j..   ",
"      '._.j.Y.Y.Y.Y.Y.Y.Y.Y.Z.W.].6 2 Y.Y.. Y.Y.  Y.Y.Y.Y.Y.    . Y.Y.Y.Y.2   } } } } Z Y.Y.Y.Y.Y.  y.Y.Y.Y.T         L.y..     ",
"      7 Q U.U.U.U.U.U.U.U.U.U.^ W.  . U.U.. U.Y.  U.U.y.. H     . U.. b U.9.    } }   . U.U.; . c.  U.U.U.U.U.      c.L.        ",
"        L.U.I.U.b s s N L.U.U.U..   . U.U.X U.F.  U.U..         . U..   K.v.    } |   . U.Z.      < U.U.Z.U.U.    c U.2         ",
"      3 P.P.P.l :.:.:.:.d K.P.P.H   . P.P.Z P.v.  P.Z.          . P..   v.v.    } }   . P.H       I P.v.  K.P.    K.Z.          ",
"      c.P.P.~ :.:.:.:.:.:.l P.P.K.  . P.P.H.P.c.  P.c.          . P..   c.c.  | } } |   P.I       I P.Z   c.P.  A P.<           ",
"      K.K.H.-.:.:.:.:.:.:.:.b.K.K.  . K.K.K.K.c.  K.c.          . K..   x.x.  } } } }   K.I       K K.F   x.K.  c.K.            ",
"    + K.J.~ :.-.=.=.*.=.-.:.! K.K.J . K.K.K.K.u.  K.u.          . J..   u.k.} } } } } 9 K.K       J K.F   u.K.  K.k.            ",
"    G H.H.O [ {  . . . .{ [ 8 H.H.7.. H.H.H.H.u.  H.u.          . H..   u.u.} | } } | ' H.J       H H.F   m.H.+ H.G             ",
"    t.H.H.] 8 s k =.=.&.s - 9 u.H.y.. H.H.H.H.u.  H.y.          . H..   y.y.}   } } } ' H.H   .   H H.Z   . . @ H.2   z   z     ",
"    9.x O.:.:.;.=.=.=.=.=.:.:.-.4 c.. G.G.G.G.t.  G.t.  :       . G..   t.t.|   } } } ' G.H   G   H G.Z       H G.    t.I G..   ",
"    O.:.:.R W.^.).].].[.^.^.) =.:.=.. D.S.D.D.t.  G.u.H D.      . D..   t.t.} | } } }   D.U 9.t.  G S.G       G D.b b u.0.5 G   ",
"  . s =.*.].].].].].].].].].].>.&.a . V.D.C.C.7.  C.u.G C.      . S..   t.7.  } } } |   C.U 8.7.  G C.F       G S.7.7.m.B 0 F   ",
"    u.k.U ].!.. 4 ].].) . R.].h.C.C.. C.V.V.C.7.  C.t.  x       . C..   7.7.  } } } }   V.F   G   F V.F       G V.    7.X.E X   ",
"    8.B.8.].X . . _.].. . . ].v B.B.. B.B.B.B.7.  B.8.          . B..   m.6.  } } } |   B.F   .   F B.C       . B.:   3 y ;     ",
"    6.l.8.].. . . ^.`.. . . ].8.B.i.X l.l.N.N.6.  B.6.          + l.. b B.x   } } } }   N.F       D l.F   s.f.. f.D     $.e     ",
"    m f.f.'.. . . ^.[.. . . ].s.f.6.1 f.f.f.f.6.  N.6.          2 f.f.f.s.    } } }     f.F       m f.C   6.f.  f.2.    #.i t   ",
"    c d.d.R.7 . . [.].. . . ^.f.d.v F d.f.d.d.4.  f.4.          b d.d.4.;     } } } }   d.m       m f.m   4.d.  4.r.    +.i =   ",
"      d.d.m '.. ` (.!.!.. !.S d.d.: m d.d.d.d.4.  d.3.          F d.m         } } } }   d.m       m d.m   3.d.  v d.    . O u   ",
"      e.a.a.~.].].( 6 ].].(.e.a.a.  m a.1.a.a.1.  a.1.          m a.v           } }     a.m       n a.x   e.a.    a.v   q j & . ",
"      V a.a.2.'.].(.Q.].].n p.a.L   n a.1.r.a.1.  a.a.          n a.:           } }     p.L       n p.3.. a.e.    L r.  g w     ",
"      . e.e.e.v /.].]._.b e.e.e.>   n e.,.,.e.,.  e.e.@   .     v e.X           } }     e.e..   @ z e.e.e.e.e.    . e.1 $..     ",
"      _ D e.e.L !.R E E.S e.e.1._.  z e.,.z e.<.  e.e.e.,.q.    v e..           } }     e.e.q.,.e.  e.e.e.e.w.      z V ..      ",
"      ].W.q.q.h q R W $ r 5.e.( ].z.M w.,.: e.e.  e.e.e.e.e.    x e.x           } }   ; e.e.e.e.e.  L e.e.e.n         0 +..     ",
". ~.E.].6 > 5 @.% E.(.W.+.q 2   '.].,.w.,.  w.e.3 e.w.w.w.w.    ,.w.P         } } }   P w.w.w.w.w.  . 5.w.5.          +.0 <.>   ",
"` ].].Q.  . g r W.) _ R.R ..w   W Q.( R .   . . . w & .               . u O }       } . . . = = .     . .           . %.  > .   ",
"_ ].]..   f X.. ].].].].$ O j %   ].].Q.        . r +.q               O X....             . o.$.e                   h j         ",
"  ` ]./ p @.N q.` ].]./.3.q., r = Q.(.v q.q.q.q.q.L h f p q.q.q.q.q.q.q.L o.@.x q.q.q.q.q.q.q.0 %.$ q.q.q.q.q.q.q.n X.v q.q.q.M ",
"  6 ].. %.r . . . 4 W . . . . O #...= o % . . . . . . ..+.& o X . . . . . . f h = X . . . . . . r %.O . . . . . . ..y . . . . . ",
"    . e g                       O X.j h w               0 %...g             . $.#.#.              g #.O         u X..           ",
"    . u q                         . y r                   e #..               . ..w                 ..%.y = & u %.O             ",
"      X e                                                                                           . i %.@.+.X.q               ",
"                                                                                                        % +.& .                 ",
"                                                                                                                                ",
"                                                                                                                                ",
"                                                                                                                                ",
"                                                                                                                                ",
"                                                                                                                                ",
"                                                                                                                                ",
"                                                                                                                                ",
"                                                                                                                                ",
"                                                                                                                                ",
"                                                                                                                                ",
"                                                                                                                                ",
"                                                                                                                                ",
"                                                                                                                                "
};
