/* XPM */
static char *_5c1c295628f4bbdc4e2d4ab1f4c7d7d7p36GSNwEZAS9MdB[] = {
/* columns rows colors chars-per-pixel */
"64 64 247 2 ",
"   c #1D0000",
".  c #250300",
"X  c #340C00",
"o  c #3C1101",
"O  c #4B1409",
"+  c #4A281A",
"@  c #55271A",
"#  c #54341C",
"$  c #652C19",
"%  c #483328",
"&  c #5A3627",
"*  c #5C3732",
"=  c #5C2E28",
"-  c #663829",
";  c #763C2B",
":  c #6A372F",
">  c #5D452D",
",  c #5B4536",
"<  c #68422A",
"1  c #75432B",
"2  c #674736",
"3  c #754B3C",
"4  c #7C4D3B",
"5  c #7A4732",
"6  c #76513B",
"7  c #6A513A",
"8  c #684746",
"9  c #794C45",
"0  c #745243",
"q  c #7C5443",
"w  c #7D5945",
"e  c #7E5B49",
"r  c #785649",
"t  c #795A56",
"y  c #6A534D",
"u  c #7C6352",
"i  c #735A60",
"p  c #844B3C",
"a  c #8B4E3C",
"s  c #864736",
"d  c #82523D",
"f  c #8A533E",
"g  c #95553F",
"h  c #874D43",
"j  c #845444",
"k  c #8C5444",
"l  c #845A44",
"z  c #8B5C45",
"x  c #8C564A",
"c  c #835D4B",
"v  c #8C5B4C",
"b  c #84544B",
"n  c #925545",
"m  c #925A47",
"M  c #945C4B",
"N  c #9B5C4B",
"B  c #955649",
"V  c #855D53",
"C  c #8B5D53",
"Z  c #975D54",
"A  c #A25B4D",
"S  c #AA5F54",
"D  c #85624E",
"F  c #8A624D",
"G  c #80684E",
"H  c #93634D",
"J  c #9B614E",
"K  c #866351",
"L  c #8A6552",
"P  c #8D6955",
"I  c #8C635C",
"U  c #8E6B5A",
"Y  c #846758",
"T  c #936454",
"R  c #9D6354",
"E  c #926956",
"W  c #93645A",
"Q  c #936C5A",
"!  c #9C6C5C",
"~  c #9B6856",
"^  c #95715E",
"/  c #9B715D",
"(  c #8D735A",
")  c #A26454",
"_  c #A36A56",
"`  c #A3655A",
"'  c #A56B5B",
"]  c #AB6C5C",
"[  c #A96857",
"{  c #B16C5C",
"}  c #A3735C",
"|  c #AC725C",
" . c #A27057",
".. c #B6745B",
"X. c #A4654E",
"o. c #876866",
"O. c #9D6D63",
"+. c #946D62",
"@. c #957362",
"#. c #9B7362",
"$. c #9B786A",
"%. c #937471",
"&. c #A46D62",
"*. c #AC6D63",
"=. c #A76462",
"-. c #B66C65",
";. c #AD7263",
":. c #AC7569",
">. c #AB7B6C",
",. c #A67865",
"<. c #B37464",
"1. c #B37964",
"2. c #B4756A",
"3. c #BA7469",
"4. c #B57A6B",
"5. c #BB7C6C",
"6. c #B97964",
"7. c #A97B73",
"8. c #BC7E72",
"9. c #B47E74",
"0. c #C47B68",
"q. c #C37E76",
"w. c #9E8179",
"e. c #A9826D",
"r. c #BC816D",
"t. c #B88366",
"y. c #AB8472",
"u. c #A78477",
"i. c #B38474",
"p. c #BC8273",
"a. c #BB8A7C",
"s. c #B7887A",
"d. c #C4846D",
"f. c #C38574",
"g. c #C58A76",
"h. c #C3857A",
"j. c #C48B7B",
"k. c #CB8C7C",
"l. c #CA8877",
"z. c #D48C7C",
"x. c #DA8D7C",
"c. c #D78A76",
"v. c #CD927D",
"b. c #C9947D",
"n. c #D4937D",
"m. c #DA937E",
"M. c #D6947A",
"N. c #D1866F",
"B. c #E18C78",
"V. c #E1937C",
"C. c #9F7F80",
"Z. c #9D8184",
"A. c #A98A88",
"S. c #BA8D83",
"D. c #AC9487",
"F. c #B99487",
"G. c #B59A93",
"H. c #AE8F92",
"J. c #BBA895",
"K. c #B79BA2",
"L. c #BDABA1",
"P. c #CC8E83",
"I. c #C68A83",
"U. c #D38C82",
"Y. c #DB8E84",
"T. c #D08F89",
"R. c #C49284",
"E. c #CD9283",
"W. c #C4938A",
"Q. c #CD958A",
"!. c #CB9B8C",
"~. c #C79B88",
"^. c #D49483",
"/. c #DA9584",
"(. c #D59984",
"). c #DB9A85",
"_. c #D3958A",
"`. c #DA9589",
"'. c #D49B8B",
"]. c #DB9C8B",
"[. c #CC9C92",
"{. c #D49D92",
"}. c #DC9D91",
"|. c #D89B98",
" X c #E19D8B",
".X c #E29787",
"XX c #E39D94",
"oX c #DCA18E",
"OX c #D7A28A",
"+X c #CDA193",
"@X c #C9A79A",
"#X c #DDA293",
"$X c #DDA49B",
"%X c #DCAB9D",
"&X c #D6A596",
"*X c #CAAC95",
"=X c #E2A18D",
"-X c #E3A286",
";X c #E2A493",
":X c #E4A897",
">X c #E4A699",
",X c #E3A99B",
"<X c #EAAB9B",
"1X c #E9A896",
"2X c #E9B19E",
"3X c #C9A8A7",
"4X c #D8ADA6",
"5X c #CCB2A9",
"6X c #D8B4A8",
"7X c #D8BBB7",
"8X c #CBA7B3",
"9X c #E7AEA2",
"0X c #E8B6A8",
"qX c #F2B7AA",
"wX c #E8BDB4",
"eX c #F8B6AA",
"rX c #DCC4BA",
"tX c #E9C4B8",
"yX c #FAC9BA",
"uX c #E7C1AE",
"iX c #E1B8C8",
"pX c #DBC4C2",
"aX c #E8CBC6",
"sX c #FBCEC4",
"dX c #FED5CA",
"fX c #FEDACC",
"gX c #F8D5C7",
"hX c #EACCD3",
"jX c #F8D8D5",
"kX c #E7D4CD",
"lX c #FCE4DB",
"zX c #F9E6D8",
"xX c #EEE5D6",
"cX c #FFDEED",
"vX c #FFECE3",
"bX c #FDEDED",
"nX c #FBE7EA",
"mX c #FFF2E4",
"MX c #FEF3EB",
"NX c #FFFAED",
"BX c #F2F4EA",
"VX c #FDECF4",
"CX c #FEF5F3",
"ZX c #FEFBF3",
"AX c #FDFCFD",
"SX c #F7F8F8",
"DX c #EBF2EF",
/* pixels */
"w w c c c c c w D D D D D D D D D D L L L L L L L F L L G G Y G u ( L Q ! p p._.E.(.E.g. X`.[ 6.^.^.z.c.x.V.B.c.c.l.^.R W +.K u ",
"w w e c c c e w D D D D D F K K D D D D F F F L F E ^ L e P ( G @.K L E j ! Q.E.h.].f.n.^.] 3.z.^.^./.x.x.V.x.c.c.n./.4.W.tX5X@X",
"e c c c c c c c D D D D D D F D L K F D F L L E Q q l ^ Q w w D K K E P j !.%X'.<X/.1X X<.0.].E.^./.`./.m..Xm.x.x.`.v.j.&XmXvXvX",
"D D D D D D D K L L K K K L L L L L L L P P P E E F c c F Q #./ @.Q q e e.+Xi.>.&.] 3.` 2.].E.#X/./././..X.X.X/.m.].E.i.s.6XtXgX",
"K D D D D K L L P P P P P P E P D K L L L L L L D E / T v T T j j b 3 q @.K Q 7.p.h.-.*.R 4.%XR.].]././.`..X.Xm.z.].'.&.E +.$.u.",
"D D D D D D K L L L L L L L P P D K L P P P L L F c T T k p x T v >.S.&.O.i.4X!.'.0X0XyXyX9.W {.].]././.`.)./.n./.].E.v C P @.K ",
"D D D D D K L L D D F F D F K K L L L L P P P P L L v h M p.E.a.,.u.S.:.h.XX2.$ X u.mXgXsXlX>X*.^./.].]./././.^.oXj.' v E @.#.@.",
"K K K L L L L L L L L K L L L L L L D D D K L L Q q v a.,X}.2.k E E >.Q.qXP.O . X @.@X@XwXfXsX_.h.^. X X/./.).].OX;.4 ! #.U V @.",
"c K P P L D L P P P P P P P P P E K E P D P P P q L !.{.}.}.2.q.T.8.[.W $.+ . L &X$X|.|.{.&XgXsX2.l.].].;Xj.'.OXR ~ E E T E Q Q ",
"D D K L L L L L L P P P P P L L L c Q P K L K E v !.%XE.Q.#X}.>XU.T.!.X . . % 4XW.Q.XXq.|.+XtXzX'.[ >XE.^.#X#X,.z H Q / ^ Q P P ",
"D D c D L P L D K L L P P P L L E P Q E Q #.v q a.!.{.,Xp.:.$X{.&.= W.O.: C [.[.9X+X+XwX7.W.9X,X9X<.g.#X(.'.~ j T E Q Q Q Q E E ",
"L D D D L P L c L L L L P P P L L P L q v O.T Z &XQ.{.%Xp . @ -     !.4X$X0X{.&XS.u.- P s.>.#X}.eX;X2.#Xb.} 3 F E P P P P E Q Q ",
"L L L L L L L L P P L L P P E P P P Q P T C v :.$X,XR.R.a.< .   + u.[.W.W.O.I.7.+Xy.X : Q.j.}.>X<X].E.R T d ,.P D L P Q Q E T P ",
"L P P P L L P P Q P L L P E E P @.w 2 3 j h M P.P.E.I.s.F.y.Q s.- & 6X!.s.yXyXwX0X!.! {.#X}.8././.].#Xx d ~ E ^ P P U U Q Q Q Q ",
"K L P P P P E Q Q P P P Q Q E P 0 Q s.!.%X'.h.}.E.:.R.0X0X6X*X*X@ - +XW.s.F.#.y.,.R.,X^.qX8.<.}.].>X#Xj.T >.w ,.^ ^ U P P Q / #.",
"D D K L P Q Q Q P P P Q Q Q P K @.uXzX0X!.Q.E.,X_.8.:.i.i.y.y.y.S.4X%X!.&X~.!.&X,X,X}._.<.] ].].;Xk.'.OX4 4 #.D L P Q ^ Q Q T T ",
"L L D D P P P Q P ^ Q K @.^ c E yXfXyXOX#XE.' f.#Xj.f.;Xg.1.4.j.,X,X{.!.&X&X!.<X_.f.*.' 5.].;X].).;Xf.R ~ m 4 j T F q 0 0 c U +.",
"c D K L L L L L c L ^ E @.Q K y.9XqX:XE.'.,Xf.; R >X>X[ a X.s g m '.#X^.#X#X4.; N ] p.E.].>X;X/.).).oX].OX2X#Xp.- 4 T #.+.V 0 3 ",
"P P U L D L E P @.w q 4 q 3 q +X#X(.b.#XOXE.#XE.N '.].5.; ; N s 4.j.].'.'.;.s p.^.].;X#X].].}.].(.n.].oXOX'.j.' R.!.4XwXtXwX&XF.",
"c D L P K Q @.E D q Q ! >.,.W &XE.OXE.OX#X'.'.].4.#X;X<.5.).6.g.'.#X'.'.R k k.].;X;X}.].].].]./.;X;X(.].;Xg.;.E.&X'.!.&X0XyXdXfX",
"D K P Q P L c q c s.0X&X!.!.i.&X'.oX#X'.#X#X'.,X5.^.] r.<X;X=X(.#X:X^.m ) ].'.'././._.'.}.;X]._.].].^.(.oXf.p.9X'.'.'.'.'.%XyXdX",
"^ ^ U P Q K c E %X%X!.!.,X&Xa.E.#Xg.OX'.E.'.].>X] B l.].].^.n.1X].h.p ' ,X].].>X>X>X;X}.].].].;X;X].;X;X'.].#X'.#X#X#X#X'.(.'.#X",
"Y U D D ^ P ~ j.a.'.'.&X_.' 4.>X:X#X:X#X>X9X'.;.N #X<X^.;X(.=X].p.5 1.>X^.].;XE.^.'.#X;X].].].].^.^.].'.^.#X;X^.]./.^.'.#X;X}.].",
"K @.U P Q 3 1 ! ' b.;.' ;.) &.` ' r.' 4.p.p p f.>XE.].^.].].^.| ' '.#XOX#X'.'.;X#X]._._.].].;X>X#X9X;X/.;X].^.1X].oX;X=X X].].].",
"K K U 3 3 &.a.OX| N ;.E.P.E.}.].k.R M s Z 4.p $X^.;XE.k.>X5.| f.#X'.#X'.#X,X^.'.#X].'.#X>X#Xk.8.;.] f.oX].].;X].].].].].]. X X).",
"P @.e T i.~.oX_ N 5.>X;X<.` k.>X>Xv.j.k 4.}.' 2.}.P.;X>Xv.1.(.oX].#X'.E.,X'.<.E.].}.;X'.5.) ` 4.l.f.v.oX].].].]./.).)./.).]..X`.",
"U e q +XwX'.g.f ].=X).f.5.5.5.] k.].<X2.k h p 8.<XP.^.'.].(.].OX'.j.#X,Xj.' ;.].>X].p.] 5._.;X].].(./.].].(.).].^./././.). X].`.",
"+.0 F.fXyX'._ 6.k.].^.{ N N ) ` h.#X_.k.R P.*.:.].}.].^.oX].k.].(.E.,X'.) R b.<X^.<.;.'.<X]._.<X].]./.(.].(.^.]./.).)./.). X X).",
"b O.yXsX&XOX| k.=X=X^.l.^.`._.^.].;XP._.*.P.8.P.}.}.#X'.E.].'.(.^.2Xk.M R j.'.E.*.k.].'./.].].k.(.(.(.(.].).^.).).].).).).].].).",
"9 S.0X9Xj.(.f.l./.). X X X].].].k.) R *.*.R B 2.Q.>Xh.j.].#X(.].#X'.' M ;.E.^.5.P.^.].].].].;X;X(.(.).).).(.).).].].)././.).)./.",
"C [.R.$X'.(.^.).).m.). X/./.U.5.2.f.>X_.}.}.h.p.*._.2.].qX].v.OX4.M 5 M ) ) ;.) <.].9X].^.].].k.).n.).).v.n.).(.).).).^./.].]./.",
"C W.s.'._.].n. X X^.]. X^. XXXf.#X].#Xl.5.f.M *.4.R M yXdXqX,X' p.E.] ;.oX#X'.].8.5.f.].}./.^.oX).v.(.(.d.l.].(.).).).^./.).].).",
"C R.,.p._.].`./././.).)./.).].].^.k.f.1.[ B k x 4.j.M :.sXsX9.I.2Xr.f.oX(.v.].].;X] ` ].^.].}.].^.1X^.].l.[ n.=Xn.). X Xn./.].).",
"# y.O.4.#X].U./././././.).).`.]./.r.[ [ 1.f.k.E.;.` 4.: x b x $X].d.l.].].).].^.<.g.^.) ;X].^.}.].].^.]./.[ ) n.).).).m.n.).).n.",
"E c ,.$X}.l. X^.^./.(.(.)./././.;Xn.d.f.^.OX].'.E.I.{.:.v O.x 4.].).).).(.n.f.<.f./.>Xg.8.;X_.>X X/.)./.=X5.s <.).).)./.].=X].k.",
"+.$.[.Q._.].XX^.^./.(.(.).)./././.).].oX;XoX'.^.#X_.Q.:.Q.Q.$X:.v.).(.n.].).l.5.;X^.'.;Xk P.}.`.].).1Xn.].n.B N N 5.=X=X).l.^.;X",
"V c [.Q.P.].`.;X/.(.).).).).).).^.).].).^.^.].;X'.'._.4.}.j._.;.k.(.^.^.;X=X^.].].].^.5.2.5.;XU.).).=X(./.).d.N N a B <.<X;X].v.",
"6XV i.9X{.U.^.]./.(.).).).).].].=X X).^.^.).].].^.5.] Z ` :.! h.].=X).(.oX(.v.]./.l.f.5.}.2.>X]. Xm.n.=X/.n.).6.] N N ' ].^.'.oX",
"fXtX7.W.qX;Xz.z./.(.(.(.(.).].]././.^.). X=X^.f.N n 8.4.}.E.}.#X^.(.(.(.].).(.].^.<.4.;Xg.2.].].).m.M. X).n.].n./.5.) N ].].}.(.",
"gXtX7.0XqXP.1X/./.(.^.(.^.(.].].).].).)./.l.{ B ] '.}.}.*.*.'.^.^.].oX).).].]././.^.#X>X2.k.]./.M..X).m.).)./. X^.f.] a j._.'.E.",
"aX5X$.4X,X]./.^.(.(.(.(.(.(.).).n./.].^./.{ a l.XX;X].U.f.` ) f./.;X].^.].]././.^.].;X^.f.g.^.]./.).m.m.(.(./. X^.(.;.n R '.'.{.",
"vXrXA.wXdXE.z.).(.(.(.m.(.(.).). X/./. X0.A <.<X^.`.`.U.q.*.2.E./.n.g.;X^.].].].;X].g.| 5.;X>Xk.M.).)./.).(./.).].].j.5 m h.'.j.",
"MXMXA.wXdX{.k.).).(.n.m.).).)./.z. X)./.A 5.<Xz.]./.].XX`.^.^.^.<X1.5.;X^.;Xf.5.5.<.<.f./.;X].^.n.). X).).(.n.k.].v.n n N k #X'.",
"nXZXA.4XdX,X'.n.(.n.M.n.(.).)./.].n.k.;X] l.>Xk.].^./.]./.].;X/.].J g.]./.;X] <.5.5.k.>X>X^.v.].).)./.n.^.].1X>X5.a ] k.' M x '.",
"MXbXpXA.lXqX].k.m.M.M.M./.)./.n.]./.].].<.^.(.;X(.^././.n.].;X(.N ) ].].].g.5.].].].].)./.].=X;X>X].].1X1X].<.a M 5.2X^.N <.n k ",
"ZXbXZX7.4XsX].n.n.M.M.M.m.m./.n.k.].].g.5.;Xn.(.]././.].;X].l.] N k.^.].].) ].1X]./././.v.g.f.g.g.f.l.4.f s J <.(.].g.;X#XJ ;.p ",
"SXAXZX5Xu.0X'.n.n.M.M.M.m.m.m.m./.j.r.f.g.f.r.^./.^.v.E.^.r.) n l.].^.'.l.B k.^.(.^.].;X^.<.` | ) 1 1 M ' p.'.].^.(.;Xl.].^.X.$ ",
"DXBXnXZX5XO.!.E.^.n.^.m.m.x.Y./.k.oXg.| ) [ E.(.v.oX].f.] B ) g.].k.=X].] N 2.P.].].(.n.(.OX#X].U.<.p.].'.E.'./.^.z.l.].f.M $ ; ",
"SXSXAXBXmX5X$.S.~.b.k./. XY.z.`.v.v.^.(.].).^.v.(.k.| a M p.j.E.Y.Y. X..0.n.s *.I.I.(.v.n.OX'._.z.0.`.^.k.].k.z./.Y./.U.s $ < < ",
"SXDXBXZXZXmX5Xu.s.!.'.k.k.`.`.`.).n.l.g.l.n./.).] s ) g.g.v.].}..XXX0.0.m.=X3.h h Z 1.t.t.1.;.h.A [ .X Xv.(.v././.x./.`.a - < < ",
"SXAXAXMXxXMXvX6X2 j J ;.l.^.k.l.z.z.m./././.x.c..Xz.z.^.]./.g.l.`.XXX...-Xn.8.8.=.Z s 1 g | ) ` -.3./.(.b.'.v.n./.x././.k & > > ",
"AXDXbXCXZXCX3X3 v p ; p <.E.^./.m.x.x.x.x.x.x.x.z..X/.z..X^.l.2X_.) 6.OXn.g.2.|._.P.0...N.m.l.Y.U.U.].b.g.v.v.n.m.c.m.].k & > > ",
"AXVXAXbXvX7XI b M ~ J m 1.'.'.j.n.m.x.x.x.x.x.Y.z.z.`.z.l.].k.<.v i.2X(.b.!.x a.$X_.^.m.V.c.q..X3.k.}.(.b.v.M.m.m.c.x./.j & > , ",
"SXDXCXCXCX3Xb ! x R M p d ~ a.OXn.m.).).)././.^.^.].].l.j.j.p.Q.!.Q ,.~.~.R.O.&.I.P./.n.z. X.XY.-.I.`.^.^.n.M.x.B.c.x.U.h - 2 * ",
"AXSXbXCXCX%.9 v x m M J z 4 d / r.t.1.| | | r.g.j.j.i.i.R.#.,.fXvXzX~.@.y.@XO.: C W p.h.5.U.`.U.3.U.U.k./.m.c.c.B.x.x.z.s - : * ",
"DXAXbXMXvXt I T T N k k H H d 5 1 1 5 5 5 5 5 5 5 < & & y.fXyX~.@X6XfXgXD.u.F.dX6XV 9 O.&.` ` *.B q._.^.^.c.c.V.B.x.x.l.; - : * ",
"AXDXSXZXjXt V v v m m m z z F H z H H ~ z F E l E D 3 w q 6 e.@X5X5XG.7XG.Y jXvXgX5X7X= V I 7.O.7.I.Q.P.k.n.m.N.m.c./.<.@ = * * ",
"DXSXBXZXzXu w L p k m H H z l l H 1 d l H d H F l c c L P c q 2 0 %.A.Z.3X3X7XCXjX7XjXC.o.u.%.U $.u.S.R.R.E.E.v.b.b.'.>.6X$.* 8 ",
"BXZXBXxXzX2 3 F H H m m z F T ~ f 5 _ H m z z k T T T v v T v C I 8 8 o.nXnXH.vXjX7XK.nXhXpXCX7X3XG.$.U U ^ #.,.y.e.U $.jXMXt % ",
"xXZXNXMXlXP q - - ; 1 5 5 1 ; - ; ; R M k ~ z m j 4 v v v v h ~ V I t 8XVX8X%.zXvXH.i hXVXZ.7XNXNXMXmXlXgXrX*XJ.D.J.D.L.G.vXu % ",
"MXmX6X@X^ l ,.,._ J z d d z ~ } ~ $ 5 ; j j b T ! z M x v m a H c Y t hXVX8XA.w.G.3XA.K.AXK., o.rXxXmXmXzXlXmXNXNXmXmXmXkXL., , ",
"lX,.3 c >.H ;. .| | | 1.e.e.>.>.T @ - o & + - - 5 4 F v F T z j l q 7.nXhX7XD.0 D.w.%.8XcXjX0 t 8 %.@XaXvXZXZXvXvXxXZXvXkXzXaX+ ",
"_.p *.;.E.a N 1.| |  . .} } } #.6 * 7 & 2 2 e 7 # # # & < 5 l l F 6 F.bXaXjXu.0 r * H.iX8XVX+.r I r 2 2 I A.5XrXkXMXpXaXjX4X4XI ",
"-.3.q.3.<.k.a s X._  .} } ~ F q e 2 + r , 0 7 7 2 & # D #.D 6 - < 6 @XbXjXCXS.7 K I %.cXVXnXS.q C C I I t 8 8 8 y y t t 8 9 jXZ "
};
