/* XPM */
static char *f712e2652f494c5d931352688e1fc1b0xh2hmg0nk4wUtlig[] = {
/* columns rows colors chars-per-pixel */
"50 50 151 2 ",
"   c #26261F",
".  c #262624",
"X  c #282523",
"o  c #272923",
"O  c #2B2A25",
"+  c #2D2D2A",
"@  c #312E2B",
"#  c #2F302C",
"$  c #33322D",
"%  c #2E2E30",
"&  c #312F30",
"*  c #2E3231",
"=  c #353531",
"-  c #393633",
";  c #363933",
":  c #3B3A35",
">  c #3E3D3A",
",  c #413E37",
"<  c #413E3A",
"1  c #3F413B",
"2  c #43423D",
"3  c #49463F",
"4  c #433F40",
"5  c #454541",
"6  c #484642",
"7  c #464843",
"8  c #4B4A45",
"9  c #4E4D49",
"0  c #504A45",
"q  c #514E4A",
"w  c #4F504A",
"e  c #54524D",
"r  c #59554E",
"t  c #565551",
"y  c #595651",
"u  c #575853",
"i  c #5C5A54",
"p  c #5D5D59",
"a  c #615E56",
"s  c #625E5A",
"d  c #63625C",
"f  c #6A655F",
"g  c #676561",
"h  c #6A6762",
"j  c #676862",
"k  c #6C6B65",
"l  c #6E6D6A",
"z  c #716D66",
"x  c #716E6A",
"c  c #737267",
"v  c #74726C",
"b  c #79766E",
"n  c #757571",
"m  c #7A7672",
"M  c #7C7B74",
"N  c #827D75",
"B  c #887F76",
"V  c #837E79",
"C  c #887F78",
"Z  c #838177",
"A  c #888177",
"S  c #85817B",
"D  c #89847D",
"F  c #8C897E",
"G  c #887F80",
"H  c #878581",
"J  c #8A8681",
"K  c #8D8A83",
"L  c #918D85",
"P  c #988F86",
"I  c #938E89",
"U  c #8F9088",
"Y  c #949186",
"T  c #999187",
"R  c #95928A",
"E  c #99958C",
"W  c #99968D",
"Q  c #9B978C",
"!  c #99948E",
"~  c #9A978E",
"^  c #9E978D",
"/  c #99958C",
"(  c #9B988F",
")  c #9C988D",
"_  c #9C998E",
"`  c #969791",
"'  c #9A9790",
"]  c #9B9791",
"[  c #9B9891",
"{  c #9A9A92",
"}  c #9F9B92",
"|  c #9F9D91",
" . c #9C9C92",
".. c #9F9C93",
"X. c #9C9E93",
"o. c #9F9F95",
"O. c #9E9E96",
"+. c #9D9B92",
"@. c #A0998F",
"#. c #A19D92",
"$. c #A19F93",
"%. c #A19E95",
"&. c #A19E97",
"*. c #A29F96",
"=. c #A19E94",
"-. c #A09D98",
";. c #A39E98",
":. c #A29F9A",
">. c #A39E99",
",. c #A3A097",
"<. c #A4A296",
"1. c #A5A397",
"2. c #A3A196",
"3. c #A8A197",
"4. c #A3A099",
"5. c #A3A399",
"6. c #A5A299",
"7. c #A7A398",
"8. c #A6A299",
"9. c #A5A29B",
"0. c #A6A39A",
"q. c #A7A39A",
"w. c #A6A498",
"e. c #A7A598",
"r. c #A7A599",
"t. c #A5A698",
"y. c #A4A49A",
"u. c #A5A59B",
"i. c #A7A49B",
"p. c #A6A39C",
"a. c #A4A49C",
"s. c #A7A49D",
"d. c #A6A69C",
"f. c #A7A49F",
"g. c #A6A69E",
"h. c #A6A49A",
"j. c #AAA399",
"k. c #A8A499",
"l. c #A9A59A",
"z. c #A8A49B",
"x. c #A8A69A",
"c. c #A9A79A",
"v. c #A9A79B",
"b. c #A8A39D",
"n. c #A8A59C",
"m. c #A9A59C",
"M. c #A8A59E",
"N. c #A8A59C",
"B. c #A7A89A",
"V. c #A6A5A0",
"C. c #A9A6A0",
/* pixels */
"= = e -.b.c.g.1 2 : K e.8.c.8. .y . S Y ! { 8.n.~ R d N i k Z L R Y k : M #.c.g.g.( : 6 > 6 8 2 + o ",
"2 d ,.8.n.e.e.K : M R e.n.8.n.e.*.h e L R Y Y R Y J $ ^ ` # i S S S q 6 x I *.g.e.j.I $ 9 { g.8.8.z ",
"x 8.e.c.e.e.} L $ y L ~ e.g.e.e.} c - V D R R K m $ 2 z 1 + - X O $ $ 2 6 D Y  .c.n.8.e 8 L W W K = ",
"8.p.g.5.e.( I 6 : : N I ~ e.*.R J $ < - S S v : > h n $ t -.g.*.K 2 c ' O M F R T ~ *.L ; S P J $ x ",
"R R R R Y J 8 2 ! 9 = S Y Y R K - 2 K = O X s R 5.g.g.2 b p.c.e.e.v 6 = - O M V L R R K + e V + k R ",
"S D D D S 9 : o.8.p.i < S K J 2 8  .c.S 2 h *.e.n.e.j.2 D 8.8.e.p.8 5 n -.b O v D S S m O = = p S S ",
"S S S V 2 $ ~ c.e.n.,.8 2 S 2 2 #.g.<. .= m W e.8.<.T ; D R  .8. .O 9 8.g.V.J @ e V e > ~ o.= 6 k m ",
"$ = * # 2 m n.e.p.e.e.( $ = : o.c.C.e.8.> S R ' R L N % S I Y Y v + { c.n.5.e.K @ : d ..~ L : < = O ",
">.^ a 6 = L c.e.e.e.8.c.m < F e.e.e.p.c.8 M Y K S q $ 2 x S K K + b ( e.8.n.8.e.b : D S u + h D R #.",
"e.e.#.- @ J ~ e.e.e.n.e.M - R e.8.e.n.e.e i x 2 : k H h $ , h 8 = K Y o.p.8.e.n.Y > O 2 < n K Y R n.",
"5.g.8.K @ V Y *.8.n.e. .k t Y e.n.e.8.{ 9 1 q K 5.g.e.e.5.h = < b L R R *.p.e.( S $ ~ p.6 > S J R W ",
"R ~ 8.g.e i K R ,.8.,.Y 8 x Y ~ c.e.*.R 6 > I  .e.n.e.e.n.5.t > C S R W Y ! ~ Y v b 8.e.M 6 $ i S K ",
"C D R R L O V R Y R R R $ D Y Y ,.{ R R < x T W n.e.n.e.c.*.6 6 i S D R R R R R 9 I n.g.M = Y h O i ",
"$ e V D R c i Z R R R D O V R R R R Y L . D R T j.e.5.8.n.R + ; + M S S ! Y Y J O Y 8.*.2 M n.8.d 2 ",
"6 = $ : h S O N S S S d O S V J R Y U m + S L R *.n.n.n.8.x 8 p.x O N S V S S k = L R D + ,.e.{ $ : ",
"e.g.,.F i O # = r 9 > $ 6 @ i V S M 8 $ 2 c S ! R n.8.8.o.$ ' b.c.h @ i d 6 O $ : S F u d R L c 3 R ",
"c.n.g.8.c.*.c : 5 t V N z 9 $ . o + 8 M m - S J R R R R N e e.e.e.,.: 6 2 9 ; 6 1 9 u . V V m O L W ",
"e.8.g.n.e.e.R $ a R ( p.8.e.*.L 2 6 5.e.e., h S J L Y R - ~ e.g.c.*.s < L g.5.e 6 2 2 1 O - > u R R ",
"8.e.n.e.e.g.k O S ! Y e.e.e.8.n.#.O R ( { b = d S S S v : R n.g.j.~ = k e.e.e.M > } n.g.5.i > D R R ",
"R n.8.c.n.' + = S J R c.n.e.n.8.<.2 b K M : 5 q X 2 i @ v R <.n.8.c 2 -.e.w.8.8 c c.n.g.c.N = S Y R ",
"R R *.n.8.g : = V S L R #.,.c.e.l $ - $ + > K w.5.c : > D R #.8.Y + D 8.c.e.R O R 8.e.g.8.M 6 S F R ",
"R R R R K + v y s S S R R R U 8 : , v R x = c ( e.e.{ ; e K R I u : L ! ;.R m - I <.e.e.j.x g V S J ",
"J R R R > b g.8.+ S V S D v O 8 J ,.n.p.8.i + K Y ~ ! > 5 q S M = < D I K D $ e R Y { R J t t S V V ",
"S S L i w p.e.c.M 2 S x = : D #.e.n.j.e.w.R + 6 S V < = e + $ . 2 > # ; + $ 2 k S S N s : ; $ : x S ",
". ; + @ ] e.g.8.@.# + : k D R g.e.e.e.g.8.L # 5 O 6 J *.c.~ $ k #.t 9 M M z 2 = & @ O > 6 9 6 : : $ ",
"( N > h ~ 8.e.( Y - 6 > S D R 8.e.e.8.} R p : t Y e.8.n.e.g.D $ 2 i g.n.8.e.,.$ u Y o.,.8.e.e.2 7 c ",
"e.c.I e K #.Y R h 2 $ : c V R Y R W ~ Y S . S W n.8.n.e.n.e.8.8 > K 8.8.n.e.e.2 D ,.n.8.e.e.g.6 : ' ",
"W W ] o Z Y I x + f I h + V L Y R Y Y K $ e Y W e.p.g.e.e.e.e.z : D W n.8.B.e.< L R g.g.c.n.p.- e T ",
"m b k = k S f @ I 8.c.n.u # V L R R Y 2 < M I Y e.C.e.e.g.8.,.s 2 i R ~ n.e. .4 Y R } c.8.<.~ $ 6 x ",
"2 5 5 @ ; = $ } n.c.e.8.p.2 6 D S J u > $ S K R ( 8.e.e.e.n.Y $ 9 = K R R W Y > Z Y Y R R Y v 2 = : ",
",.,.5.] > 6 m 8.8.n.8.g.p.R + u S p - < @ x S K R R R R R R V $ R x f S J K Z O d S J I I V O j R  .",
"g.e.e.b.K + V o.e.e.e.*.Y R D + + = = S d O : m H L R R Y Y : b R Y $ i q : . 6 = @ a M m O = K e.8.",
"g.c.e.8.,.: x K R } R Y Y R R d > $ ..8.e.5.S $ $ d V S Z d : l L T z 5 2 D Q 8.e.! f $ # 2 k R n.8.",
"8.n.8.n.e.k q S ! R R R R R I S   L 5.e.c.c.e.*.; 5 = X O 2 = 2 o 9 l > v } c.e.c.e.8.-.9 = D I e.n.",
"n.e.n.8.e.K X S C S D F K K S a < D R e.c.n.e.#.2 d Y { o.2 i R g.R e < k } e.g.n.e.c.8.i > V R ~ 8.",
"c.e.p.n.#.R O 9 l l h t 2 < + $ 2 M K R *.5.5.L + } e.e.e.K 0 Y e.<.c.v 9 K =.n.e.e.e.e.u i V L R ~ ",
"Y e.g.8.Y K $ 2 $ > 2 9 h v v v = $ V J R R R y s e.e.p.8.-.: Y ~ n.g.8.q x Y o.e.*.} R q l S K R R ",
"R R ~ R R m + M L W *.8.8.n.c.n.} 8 > S A Y S O J ~ e.n.8...- S I R ' ,.{ O M L R R L J 2 m V S R R ",
"R R R R S $ k } g.g.e.e.n.8.e.e.c.R < 8 V S 8 1 J T 8.<.W R q m C L K K J u @ x V x i - $ h S S V K ",
"S L R D a $ S Y ~ 8.e.e.e.n.8.*.R R c $ 1 j : 9 D R R R R Y j $ < 2 2 < + = 7 : $ : $ > 7 # r V S S ",
"M Z S h O v S L Y R Y R #.W Y R K h + i i = 6 : m S G H D D d : 2 t d c b v = : R 8.8. .A e - $ - s ",
"9 > O + 1 2 b S S D I R R R L V 2 : : Y c.8.n : + O O @ 3 $ > > S R <.e.e.g.v 8 Y #.8.g.e.e.D - e p ",
"R #.c. .J : > $ ; q x N V S s O = + 6 J K D i $ > 2 7 9 8.p.2 6 i P R 5.g.8.8.$ V R ( 8.p.8.K O L R ",
"D D S F J $ : k = 6 J s ; + q K *.2.> + + = q x n d + > Y L : > = e S K Y ~ #.N s J R R R K e ; v D ",
"q < O + $ : D 8.{ - m 1 e K g.e.n.e.! = 1 c <.e.g.n.S = V 8 { <.p 2 $ < v D K I + S S Z d $ : r g d ",
"e.e.8.I O 2 ( c.e.' : $ B T e.g.g.g.! @ e ( n.e.e.c.I - $ K n.<.8.8 8 ] f = 8 k : : <   ; 2 M -.n.8.",
"g.e.b.] @ z R ,.c.n.K $ v R R -.p.:.H @ R c.e.e.c.8.I = d W 8.8.8.*.$ K *.o.e 2 6 c ~ { + 2 I 3.e.e.",
"c.e.5.l 1 = J R *.e.F $ > c K Y T L 2 M e.8.e.g.c.e.K $ D R p.c.n.e.k k K R D @ v R 8.g.O m L ^ n.n.",
"~ ~ K O 2 $ 6 K Y R t 2 1 : > M S c 0 ~ e.e.n.c.e.e.D : S R R e.e.8.S = k 2 : 6 2 M K K   S D L R R ",
"V S = > I ,.6 u D h : 8 S { c + $ + V R e.e.8.e.e.Y c < h J R R ~ R N 6 = d v x r ; $ 2 : : s c S S "
};
